STARTFONT 2.1
FONT -FontForge-Arial Narrow-Bold-R-Normal--21-200-75-75-P-109-ISO10646-1
SIZE 20 75 75
FONTBOUNDINGBOX 24 29 -3 -6
COMMENT "Generated by fontforge, http://fontforge.sourceforge.net"
COMMENT "(c) 2008 The Monotype Corporation. All Rights Reserved."
STARTPROPERTIES 40
FOUNDRY "FontForge"
FAMILY_NAME "Arial Narrow"
WEIGHT_NAME "Bold"
SLANT "R"
SETWIDTH_NAME "Normal"
ADD_STYLE_NAME ""
PIXEL_SIZE 21
POINT_SIZE 200
RESOLUTION_X 75
RESOLUTION_Y 75
SPACING "P"
AVERAGE_WIDTH 109
CHARSET_REGISTRY "ISO10646"
CHARSET_ENCODING "1"
FONTNAME_REGISTRY ""
CHARSET_COLLECTIONS "ASCII ISOLatin1Encoding ISO8859-2 ISO8859-5 ISO8859-7 ISO8859-9 ISO8859-4 ISO10646-1"
FONT_NAME "ArialNarrow-Bold"
FACE_NAME "Arial Narrow Bold"
COPYRIGHT "(c) 2008 The Monotype Corporation. All Rights Reserved."
FONT_VERSION "2.40"
FONT_ASCENT 17
FONT_DESCENT 4
UNDERLINE_POSITION -3
UNDERLINE_THICKNESS 2
X_HEIGHT 10
CAP_HEIGHT 14
RAW_ASCENT 799
RAW_DESCENT 200
NORM_SPACE 5
RELATIVE_WEIGHT 70
RELATIVE_SETWIDTH 30
SUPERSCRIPT_X 0
SUPERSCRIPT_Y 5
SUPERSCRIPT_SIZE 13
SUBSCRIPT_X 0
SUBSCRIPT_Y 1
SUBSCRIPT_SIZE 13
FIGURE_WIDTH 10
AVG_LOWERCASE_WIDTH 98
AVG_UPPERCASE_WIDTH 118
ENDPROPERTIES
CHARS 667
STARTCHAR space
ENCODING 32
SWIDTH 228 0
DWIDTH 5 0
BBX 1 1 0 0
BITMAP
00
ENDCHAR
STARTCHAR exclam
ENCODING 33
SWIDTH 272 0
DWIDTH 6 0
BBX 3 15 1 0
BITMAP
E0
E0
E0
E0
E0
E0
E0
E0
40
40
40
40
00
E0
E0
ENDCHAR
STARTCHAR quotedbl
ENCODING 34
SWIDTH 389 0
DWIDTH 8 0
BBX 7 5 0 10
BITMAP
EE
EE
EE
EE
EE
ENDCHAR
STARTCHAR numbersign
ENCODING 35
SWIDTH 456 0
DWIDTH 10 0
BBX 9 15 0 0
BITMAP
3300
3300
3300
3300
FF80
FF80
3300
7700
6600
FF80
FF80
6600
6600
6600
6600
ENDCHAR
STARTCHAR dollar
ENCODING 36
SWIDTH 456 0
DWIDTH 10 0
BBX 8 18 1 -2
BITMAP
10
3C
7E
D7
D3
D0
F0
F8
7E
1F
17
D3
D3
77
7E
3C
10
10
ENDCHAR
STARTCHAR percent
ENCODING 37
SWIDTH 729 0
DWIDTH 15 0
BBX 14 15 1 0
BITMAP
7060
F860
D8C0
D8C0
D980
D980
FB00
7338
037C
066C
066C
0C6C
0C6C
187C
1838
ENDCHAR
STARTCHAR ampersand
ENCODING 38
SWIDTH 591 0
DWIDTH 12 0
BBX 11 15 1 0
BITMAP
1F00
3F80
3B80
3B80
3B80
1F00
1E00
3E00
7F60
E7C0
E3C0
E3C0
E3E0
7FE0
3E40
ENDCHAR
STARTCHAR quotesingle
ENCODING 39
SWIDTH 194 0
DWIDTH 4 0
BBX 3 5 0 10
BITMAP
E0
E0
E0
E0
E0
ENDCHAR
STARTCHAR parenleft
ENCODING 40
SWIDTH 272 0
DWIDTH 6 0
BBX 5 19 1 -4
BITMAP
18
30
30
70
70
E0
E0
E0
E0
E0
E0
E0
E0
60
70
70
30
30
18
ENDCHAR
STARTCHAR parenright
ENCODING 41
SWIDTH 272 0
DWIDTH 6 0
BBX 5 19 0 -4
BITMAP
C0
60
60
70
70
30
38
38
38
38
38
38
38
30
70
70
60
60
C0
ENDCHAR
STARTCHAR asterisk
ENCODING 42
SWIDTH 318 0
DWIDTH 7 0
BBX 6 7 0 8
BITMAP
30
30
FC
78
30
78
48
ENDCHAR
STARTCHAR plus
ENCODING 43
SWIDTH 479 0
DWIDTH 10 0
BBX 7 11 1 2
BITMAP
38
38
38
38
FE
FE
FE
38
38
38
38
ENDCHAR
STARTCHAR comma
ENCODING 44
SWIDTH 228 0
DWIDTH 5 0
BBX 3 5 1 -3
BITMAP
E0
E0
60
E0
C0
ENDCHAR
STARTCHAR hyphen
ENCODING 45
SWIDTH 272 0
DWIDTH 6 0
BBX 4 2 1 4
BITMAP
F0
F0
ENDCHAR
STARTCHAR period
ENCODING 46
SWIDTH 228 0
DWIDTH 5 0
BBX 3 2 1 0
BITMAP
E0
E0
ENDCHAR
STARTCHAR slash
ENCODING 47
SWIDTH 228 0
DWIDTH 5 0
BBX 5 15 0 0
BITMAP
38
38
38
38
70
70
70
70
70
70
70
E0
E0
E0
E0
ENDCHAR
STARTCHAR zero
ENCODING 48
SWIDTH 456 0
DWIDTH 10 0
BBX 8 15 1 0
BITMAP
3C
7E
66
E7
E7
E7
E7
E7
E7
E7
E7
E7
66
7E
3C
ENDCHAR
STARTCHAR one
ENCODING 49
SWIDTH 456 0
DWIDTH 10 0
BBX 6 15 1 0
BITMAP
0C
1C
3C
7C
DC
9C
1C
1C
1C
1C
1C
1C
1C
1C
1C
ENDCHAR
STARTCHAR two
ENCODING 50
SWIDTH 456 0
DWIDTH 10 0
BBX 9 15 0 0
BITMAP
3E00
7F00
E380
E380
0380
0380
0780
0F00
1E00
1E00
3C00
7800
7000
FF80
FF80
ENDCHAR
STARTCHAR three
ENCODING 51
SWIDTH 456 0
DWIDTH 10 0
BBX 8 15 1 0
BITMAP
3C
7E
E7
E7
07
0F
1E
1E
07
07
07
E7
E7
7E
3C
ENDCHAR
STARTCHAR four
ENCODING 52
SWIDTH 456 0
DWIDTH 10 0
BBX 9 15 1 0
BITMAP
0E00
0E00
1E00
1E00
3E00
3E00
2E00
6E00
4E00
CE00
FF80
FF80
0E00
0E00
0E00
ENDCHAR
STARTCHAR five
ENCODING 53
SWIDTH 456 0
DWIDTH 10 0
BBX 8 15 1 0
BITMAP
7E
7E
60
60
C0
FC
FE
CF
07
07
07
E7
E6
7E
3C
ENDCHAR
STARTCHAR six
ENCODING 54
SWIDTH 456 0
DWIDTH 10 0
BBX 8 15 1 0
BITMAP
1C
7E
67
E7
E0
E0
FC
FE
E7
E7
E7
E7
67
7E
3C
ENDCHAR
STARTCHAR seven
ENCODING 55
SWIDTH 456 0
DWIDTH 10 0
BBX 8 15 1 0
BITMAP
FF
FF
07
06
0E
0E
1C
1C
1C
1C
38
38
38
38
38
ENDCHAR
STARTCHAR eight
ENCODING 56
SWIDTH 456 0
DWIDTH 10 0
BBX 8 15 1 0
BITMAP
3C
7E
E7
E7
E7
E6
3C
3C
66
E7
E7
E7
E7
7E
3C
ENDCHAR
STARTCHAR nine
ENCODING 57
SWIDTH 456 0
DWIDTH 10 0
BBX 8 15 1 0
BITMAP
3C
7E
E6
E7
E7
E7
E7
7F
3F
07
07
E7
E6
7E
38
ENDCHAR
STARTCHAR colon
ENCODING 58
SWIDTH 272 0
DWIDTH 6 0
BBX 3 11 2 0
BITMAP
E0
E0
00
00
00
00
00
00
00
E0
E0
ENDCHAR
STARTCHAR semicolon
ENCODING 59
SWIDTH 272 0
DWIDTH 6 0
BBX 3 14 2 -3
BITMAP
E0
E0
00
00
00
00
00
00
00
E0
E0
60
E0
C0
ENDCHAR
STARTCHAR less
ENCODING 60
SWIDTH 479 0
DWIDTH 10 0
BBX 8 9 1 2
BITMAP
03
3F
FF
FC
C0
FC
FF
3F
03
ENDCHAR
STARTCHAR equal
ENCODING 61
SWIDTH 479 0
DWIDTH 10 0
BBX 8 8 1 3
BITMAP
FF
FF
FF
00
00
FF
FF
FF
ENDCHAR
STARTCHAR greater
ENCODING 62
SWIDTH 479 0
DWIDTH 10 0
BBX 8 9 1 2
BITMAP
C0
FC
FF
3F
03
3F
FF
FC
C0
ENDCHAR
STARTCHAR question
ENCODING 63
SWIDTH 500 0
DWIDTH 11 0
BBX 9 15 1 0
BITMAP
3E00
7F00
7380
E380
E380
0380
0780
0F00
1E00
1E00
1C00
1C00
0000
1C00
1C00
ENDCHAR
STARTCHAR at
ENCODING 64
SWIDTH 799 0
DWIDTH 17 0
BBX 17 19 0 -4
BITMAP
03F000
0FF800
1C1C00
300E00
700600
61DB00
E3FB00
C67300
CE3300
CC3300
CC6700
CC6600
CCEC00
6FFC00
66F180
300300
3C0E00
0FFC00
03F000
ENDCHAR
STARTCHAR A
ENCODING 65
SWIDTH 591 0
DWIDTH 12 0
BBX 11 15 0 0
BITMAP
1F00
1F00
1F00
1B00
3B80
3B80
3B80
3B80
3180
7FC0
7FC0
71C0
71C0
E0E0
E0E0
ENDCHAR
STARTCHAR B
ENCODING 66
SWIDTH 591 0
DWIDTH 12 0
BBX 10 15 1 0
BITMAP
FF00
FF80
E1C0
E1C0
E1C0
E180
FF80
FF80
E1C0
E1C0
E1C0
E1C0
E1C0
FF80
FF00
ENDCHAR
STARTCHAR C
ENCODING 67
SWIDTH 591 0
DWIDTH 12 0
BBX 11 15 1 0
BITMAP
1F00
3FC0
71C0
70E0
E0C0
E000
E000
E000
E000
E000
E0C0
70E0
71C0
3FC0
1F00
ENDCHAR
STARTCHAR D
ENCODING 68
SWIDTH 591 0
DWIDTH 12 0
BBX 10 15 1 0
BITMAP
FE00
FF00
E380
E180
E1C0
E1C0
E1C0
E1C0
E1C0
E1C0
E1C0
E180
E380
FF00
FE00
ENDCHAR
STARTCHAR E
ENCODING 69
SWIDTH 546 0
DWIDTH 11 0
BBX 9 15 1 0
BITMAP
FF80
FF80
E000
E000
E000
E000
FF80
FF80
E000
E000
E000
E000
E000
FF80
FF80
ENDCHAR
STARTCHAR F
ENCODING 70
SWIDTH 500 0
DWIDTH 11 0
BBX 9 15 1 0
BITMAP
FF80
FF80
E000
E000
E000
E000
FF00
FF00
E000
E000
E000
E000
E000
E000
E000
ENDCHAR
STARTCHAR G
ENCODING 71
SWIDTH 638 0
DWIDTH 13 0
BBX 11 15 1 0
BITMAP
1F00
3FC0
71C0
70E0
E0E0
E000
E000
E3E0
E3E0
E0E0
E0E0
70E0
71E0
3FC0
0F00
ENDCHAR
STARTCHAR H
ENCODING 72
SWIDTH 591 0
DWIDTH 12 0
BBX 10 15 1 0
BITMAP
E1C0
E1C0
E1C0
E1C0
E1C0
E1C0
FFC0
FFC0
E1C0
E1C0
E1C0
E1C0
E1C0
E1C0
E1C0
ENDCHAR
STARTCHAR I
ENCODING 73
SWIDTH 228 0
DWIDTH 5 0
BBX 3 15 1 0
BITMAP
E0
E0
E0
E0
E0
E0
E0
E0
E0
E0
E0
E0
E0
E0
E0
ENDCHAR
STARTCHAR J
ENCODING 74
SWIDTH 456 0
DWIDTH 10 0
BBX 9 15 0 0
BITMAP
0380
0380
0380
0380
0380
0380
0380
0380
0380
0380
E380
E380
F380
7F00
3E00
ENDCHAR
STARTCHAR K
ENCODING 75
SWIDTH 591 0
DWIDTH 12 0
BBX 11 15 1 0
BITMAP
E0E0
E1C0
E380
E780
E700
EE00
FF00
FF00
F700
E380
E380
E1C0
E1C0
E0E0
E0E0
ENDCHAR
STARTCHAR L
ENCODING 76
SWIDTH 500 0
DWIDTH 11 0
BBX 9 15 1 0
BITMAP
E000
E000
E000
E000
E000
E000
E000
E000
E000
E000
E000
E000
E000
FF80
FF80
ENDCHAR
STARTCHAR M
ENCODING 77
SWIDTH 683 0
DWIDTH 15 0
BBX 13 15 1 0
BITMAP
F078
F078
F078
F8F8
F8F8
E8B8
E8B8
EDB8
EDB8
EDB8
E538
E738
E738
E738
E738
ENDCHAR
STARTCHAR N
ENCODING 78
SWIDTH 591 0
DWIDTH 12 0
BBX 10 15 1 0
BITMAP
E1C0
F1C0
F1C0
F1C0
F9C0
F9C0
EDC0
EDC0
EDC0
E7C0
E7C0
E7C0
E3C0
E3C0
E1C0
ENDCHAR
STARTCHAR O
ENCODING 79
SWIDTH 638 0
DWIDTH 13 0
BBX 11 15 1 0
BITMAP
1F00
3F80
71C0
71C0
E0E0
E0E0
E0E0
E0E0
E0E0
E0E0
E0E0
71C0
71C0
3F80
1F00
ENDCHAR
STARTCHAR P
ENCODING 80
SWIDTH 546 0
DWIDTH 11 0
BBX 9 15 1 0
BITMAP
FE00
FF00
E380
E380
E380
E380
E380
FF00
FE00
E000
E000
E000
E000
E000
E000
ENDCHAR
STARTCHAR Q
ENCODING 81
SWIDTH 638 0
DWIDTH 13 0
BBX 12 16 1 -1
BITMAP
1F00
3F80
71C0
71C0
E0E0
E0E0
E0E0
E0E0
E0E0
E0E0
E6E0
77C0
73C0
3FC0
1F70
0020
ENDCHAR
STARTCHAR R
ENCODING 82
SWIDTH 591 0
DWIDTH 12 0
BBX 11 15 1 0
BITMAP
FF00
FF80
E1C0
E1C0
E1C0
E1C0
E1C0
FF80
FF00
E700
E380
E380
E1C0
E1C0
E0E0
ENDCHAR
STARTCHAR S
ENCODING 83
SWIDTH 546 0
DWIDTH 11 0
BBX 10 15 0 0
BITMAP
3E00
7F80
F380
E1C0
E1C0
F000
7E00
7F80
1FC0
03C0
E1C0
E1C0
73C0
7F80
1F00
ENDCHAR
STARTCHAR T
ENCODING 84
SWIDTH 500 0
DWIDTH 11 0
BBX 11 15 0 0
BITMAP
FFE0
FFE0
0E00
0E00
0E00
0E00
0E00
0E00
0E00
0E00
0E00
0E00
0E00
0E00
0E00
ENDCHAR
STARTCHAR U
ENCODING 85
SWIDTH 591 0
DWIDTH 12 0
BBX 10 15 1 0
BITMAP
E1C0
E1C0
E1C0
E1C0
E1C0
E1C0
E1C0
E1C0
E1C0
E1C0
E1C0
E1C0
F3C0
7F80
3F00
ENDCHAR
STARTCHAR V
ENCODING 86
SWIDTH 546 0
DWIDTH 11 0
BBX 11 15 0 0
BITMAP
E0E0
E0E0
71C0
71C0
71C0
71C0
71C0
3B80
3B80
3B80
3B80
1F00
1F00
1F00
1F00
ENDCHAR
STARTCHAR W
ENCODING 87
SWIDTH 773 0
DWIDTH 16 0
BBX 16 15 0 0
BITMAP
E187
E1C7
E3C7
E3C7
73CE
73CE
766E
766E
766E
766E
766E
3E7C
3C3C
3C3C
3C3C
ENDCHAR
STARTCHAR X
ENCODING 88
SWIDTH 546 0
DWIDTH 11 0
BBX 11 15 0 0
BITMAP
E0E0
71C0
71C0
3B80
3B80
1F00
1F00
0E00
1F00
1F00
3B80
3B80
71C0
71C0
E0E0
ENDCHAR
STARTCHAR Y
ENCODING 89
SWIDTH 546 0
DWIDTH 11 0
BBX 11 15 0 0
BITMAP
E0E0
71C0
71C0
3B80
3B80
1F00
1F00
0E00
0E00
0E00
0E00
0E00
0E00
0E00
0E00
ENDCHAR
STARTCHAR Z
ENCODING 90
SWIDTH 500 0
DWIDTH 11 0
BBX 9 15 1 0
BITMAP
7F80
7F80
0380
0700
0700
0E00
1C00
1C00
3800
3800
7000
7000
E000
FF80
FF80
ENDCHAR
STARTCHAR bracketleft
ENCODING 91
SWIDTH 272 0
DWIDTH 6 0
BBX 5 19 1 -4
BITMAP
F8
F8
E0
E0
E0
E0
E0
E0
E0
E0
E0
E0
E0
E0
E0
E0
E0
F8
F8
ENDCHAR
STARTCHAR backslash
ENCODING 92
SWIDTH 228 0
DWIDTH 5 0
BBX 5 15 0 0
BITMAP
E0
E0
E0
E0
70
70
70
70
70
70
70
38
38
38
38
ENDCHAR
STARTCHAR bracketright
ENCODING 93
SWIDTH 272 0
DWIDTH 6 0
BBX 5 19 0 -4
BITMAP
F8
F8
38
38
38
38
38
38
38
38
38
38
38
38
38
38
38
F8
F8
ENDCHAR
STARTCHAR asciicircum
ENCODING 94
SWIDTH 479 0
DWIDTH 10 0
BBX 9 8 1 7
BITMAP
3E00
3E00
3E00
7700
7700
7700
E380
E380
ENDCHAR
STARTCHAR underscore
ENCODING 95
SWIDTH 456 0
DWIDTH 10 0
BBX 10 1 0 -3
BITMAP
FFC0
ENDCHAR
STARTCHAR grave
ENCODING 96
SWIDTH 272 0
DWIDTH 6 0
BBX 3 2 1 12
BITMAP
C0
60
ENDCHAR
STARTCHAR a
ENCODING 97
SWIDTH 456 0
DWIDTH 10 0
BBX 8 11 1 0
BITMAP
3E
7F
E7
07
0F
7F
F7
E7
E7
FF
77
ENDCHAR
STARTCHAR b
ENCODING 98
SWIDTH 500 0
DWIDTH 11 0
BBX 9 15 1 0
BITMAP
E000
E000
E000
E000
EE00
FF00
F780
E380
E380
E380
E380
E380
F780
FF00
EE00
ENDCHAR
STARTCHAR c
ENCODING 99
SWIDTH 456 0
DWIDTH 10 0
BBX 8 11 1 0
BITMAP
3C
7E
67
E7
E0
E0
E0
E7
67
7E
3C
ENDCHAR
STARTCHAR d
ENCODING 100
SWIDTH 500 0
DWIDTH 11 0
BBX 9 15 1 0
BITMAP
0380
0380
0380
0380
3B80
7F80
F780
E380
E380
E380
E380
E380
F780
7F80
3B80
ENDCHAR
STARTCHAR e
ENCODING 101
SWIDTH 456 0
DWIDTH 10 0
BBX 8 11 1 0
BITMAP
3C
7E
66
E7
FF
FF
E0
E7
67
7E
3C
ENDCHAR
STARTCHAR f
ENCODING 102
SWIDTH 272 0
DWIDTH 6 0
BBX 7 15 0 0
BITMAP
3E
7E
70
70
FC
FC
70
70
70
70
70
70
70
70
70
ENDCHAR
STARTCHAR g
ENCODING 103
SWIDTH 500 0
DWIDTH 11 0
BBX 9 15 1 -4
BITMAP
3B80
7F80
F780
E380
E380
E380
E380
E380
F780
7F80
3B80
0380
E380
FF00
7E00
ENDCHAR
STARTCHAR h
ENCODING 104
SWIDTH 500 0
DWIDTH 11 0
BBX 9 15 1 0
BITMAP
E000
E000
E000
E000
EF00
FF80
F380
E380
E380
E380
E380
E380
E380
E380
E380
ENDCHAR
STARTCHAR i
ENCODING 105
SWIDTH 228 0
DWIDTH 5 0
BBX 3 15 1 0
BITMAP
E0
E0
E0
00
E0
E0
E0
E0
E0
E0
E0
E0
E0
E0
E0
ENDCHAR
STARTCHAR j
ENCODING 106
SWIDTH 228 0
DWIDTH 5 0
BBX 5 19 -1 -4
BITMAP
38
38
38
00
38
38
38
38
38
38
38
38
38
38
38
38
38
F8
F0
ENDCHAR
STARTCHAR k
ENCODING 107
SWIDTH 456 0
DWIDTH 10 0
BBX 8 15 1 0
BITMAP
E0
E0
E0
E0
E7
EE
EE
FC
FC
FE
FE
EE
E7
E7
E7
ENDCHAR
STARTCHAR l
ENCODING 108
SWIDTH 228 0
DWIDTH 5 0
BBX 3 15 1 0
BITMAP
E0
E0
E0
E0
E0
E0
E0
E0
E0
E0
E0
E0
E0
E0
E0
ENDCHAR
STARTCHAR m
ENCODING 109
SWIDTH 729 0
DWIDTH 15 0
BBX 13 11 1 0
BITMAP
EE70
FFF8
E738
E738
E738
E738
E738
E738
E738
E738
E738
ENDCHAR
STARTCHAR n
ENCODING 110
SWIDTH 500 0
DWIDTH 11 0
BBX 9 11 1 0
BITMAP
EF00
FF80
F380
E380
E380
E380
E380
E380
E380
E380
E380
ENDCHAR
STARTCHAR o
ENCODING 111
SWIDTH 500 0
DWIDTH 11 0
BBX 9 11 1 0
BITMAP
3C00
7F00
7700
E380
E380
E380
E380
E380
7700
7F00
3C00
ENDCHAR
STARTCHAR p
ENCODING 112
SWIDTH 500 0
DWIDTH 11 0
BBX 9 15 1 -4
BITMAP
EE00
FF00
F780
E380
E380
E380
E380
E380
F780
FF00
EE00
E000
E000
E000
E000
ENDCHAR
STARTCHAR q
ENCODING 113
SWIDTH 500 0
DWIDTH 11 0
BBX 9 15 1 -4
BITMAP
3B80
7F80
F780
E380
E380
E380
E380
E380
F780
7F80
3B80
0380
0380
0380
0380
ENDCHAR
STARTCHAR r
ENCODING 114
SWIDTH 318 0
DWIDTH 7 0
BBX 6 11 1 0
BITMAP
EC
FC
F0
E0
E0
E0
E0
E0
E0
E0
E0
ENDCHAR
STARTCHAR s
ENCODING 115
SWIDTH 456 0
DWIDTH 10 0
BBX 8 11 1 0
BITMAP
3C
7F
E7
E0
F8
7E
1F
07
E7
7E
3C
ENDCHAR
STARTCHAR t
ENCODING 116
SWIDTH 272 0
DWIDTH 6 0
BBX 6 15 0 0
BITMAP
10
70
70
70
FC
FC
70
70
70
70
70
70
70
7C
3C
ENDCHAR
STARTCHAR u
ENCODING 117
SWIDTH 500 0
DWIDTH 11 0
BBX 9 11 1 0
BITMAP
E380
E380
E380
E380
E380
E380
E380
E380
E780
7F80
3B80
ENDCHAR
STARTCHAR v
ENCODING 118
SWIDTH 456 0
DWIDTH 10 0
BBX 9 11 0 0
BITMAP
E380
E380
7700
7700
7700
7700
7700
3600
3E00
3E00
3E00
ENDCHAR
STARTCHAR w
ENCODING 119
SWIDTH 638 0
DWIDTH 13 0
BBX 13 11 0 0
BITMAP
E738
E738
7770
7770
7570
7570
3560
3DE0
3DE0
3DE0
3DE0
ENDCHAR
STARTCHAR x
ENCODING 120
SWIDTH 456 0
DWIDTH 10 0
BBX 10 11 0 0
BITMAP
E1C0
7380
3300
3F00
1E00
1E00
1E00
3F00
3300
7380
E1C0
ENDCHAR
STARTCHAR y
ENCODING 121
SWIDTH 456 0
DWIDTH 10 0
BBX 10 15 0 -4
BITMAP
E1C0
E1C0
7380
7380
7380
3300
3300
3F00
1E00
1E00
1E00
0C00
1C00
7800
7000
ENDCHAR
STARTCHAR z
ENCODING 122
SWIDTH 410 0
DWIDTH 9 0
BBX 9 11 0 0
BITMAP
FF80
FF80
0700
0700
0E00
1C00
3800
7000
7000
FF80
FF80
ENDCHAR
STARTCHAR braceleft
ENCODING 123
SWIDTH 318 0
DWIDTH 7 0
BBX 7 19 0 -4
BITMAP
1E
1E
38
38
38
38
38
70
F0
F0
70
38
38
38
38
38
38
1E
0E
ENDCHAR
STARTCHAR bar
ENCODING 124
SWIDTH 229 0
DWIDTH 5 0
BBX 3 19 1 -4
BITMAP
E0
E0
E0
E0
E0
E0
E0
E0
E0
E0
E0
E0
E0
E0
E0
E0
E0
E0
E0
ENDCHAR
STARTCHAR braceright
ENCODING 125
SWIDTH 318 0
DWIDTH 7 0
BBX 7 19 0 -4
BITMAP
E0
F0
38
38
38
38
38
1C
1E
1E
1C
38
38
38
38
38
38
F8
E0
ENDCHAR
STARTCHAR asciitilde
ENCODING 126
SWIDTH 479 0
DWIDTH 10 0
BBX 8 3 1 6
BITMAP
71
FF
8E
ENDCHAR
STARTCHAR nbspace
ENCODING 160
SWIDTH 456 0
DWIDTH 10 0
BBX 1 1 0 0
BITMAP
00
ENDCHAR
STARTCHAR exclamdown
ENCODING 161
SWIDTH 272 0
DWIDTH 6 0
BBX 3 15 1 -4
BITMAP
E0
E0
00
40
40
40
40
E0
E0
E0
E0
E0
E0
E0
E0
ENDCHAR
STARTCHAR cent
ENCODING 162
SWIDTH 456 0
DWIDTH 10 0
BBX 8 19 1 -4
BITMAP
04
04
04
08
3C
7E
EE
EF
E8
E8
F0
F7
F7
7E
3C
10
20
20
20
ENDCHAR
STARTCHAR sterling
ENCODING 163
SWIDTH 456 0
DWIDTH 10 0
BBX 10 15 0 0
BITMAP
1E00
3F00
7380
7380
7000
7000
FC00
FC00
3800
3800
3000
7000
FC80
FFC0
4780
ENDCHAR
STARTCHAR currency
ENCODING 164
SWIDTH 456 0
DWIDTH 10 0
BBX 10 11 0 2
BITMAP
6180
FFC0
7F80
3300
7380
7380
7380
3300
7F80
FFC0
6180
ENDCHAR
STARTCHAR yen
ENCODING 165
SWIDTH 456 0
DWIDTH 11 0
BBX 11 15 0 0
BITMAP
E0E0
71C0
71C0
3B80
3B80
1B00
1F00
FFE0
FFE0
0E00
FFE0
FFE0
0E00
0E00
0E00
ENDCHAR
STARTCHAR brokenbar
ENCODING 166
SWIDTH 229 0
DWIDTH 5 0
BBX 3 19 2 -4
BITMAP
E0
E0
E0
E0
E0
E0
E0
E0
00
00
00
E0
E0
E0
E0
E0
E0
E0
E0
ENDCHAR
STARTCHAR section
ENCODING 167
SWIDTH 456 0
DWIDTH 10 0
BBX 9 19 0 -4
BITMAP
3C00
7E00
7700
7700
7000
3800
7C00
EE00
E700
E380
7380
3B80
1F00
0E00
0700
7700
7700
3F00
1E00
ENDCHAR
STARTCHAR dieresis
ENCODING 168
SWIDTH 272 0
DWIDTH 6 0
BBX 6 2 0 13
BITMAP
CC
CC
ENDCHAR
STARTCHAR copyright
ENCODING 169
SWIDTH 604 0
DWIDTH 13 0
BBX 13 15 0 0
BITMAP
0F80
1040
2020
4790
4850
9008
9008
9008
9008
9048
48D0
4790
2020
1040
0F80
ENDCHAR
STARTCHAR ordfeminine
ENCODING 170
SWIDTH 303 0
DWIDTH 6 0
BBX 5 7 0 8
BITMAP
70
F8
18
78
D8
F8
78
ENDCHAR
STARTCHAR guillemotleft
ENCODING 171
SWIDTH 456 0
DWIDTH 10 0
BBX 9 9 1 1
BITMAP
1980
3300
7700
6600
EE00
6600
7700
3300
1980
ENDCHAR
STARTCHAR logicalnot
ENCODING 172
SWIDTH 479 0
DWIDTH 10 0
BBX 8 8 1 3
BITMAP
FF
FF
FF
07
07
07
07
07
ENDCHAR
STARTCHAR hyphen.dup1
ENCODING 173
SWIDTH 272 0
DWIDTH 6 0
BBX 4 2 1 4
BITMAP
F0
F0
ENDCHAR
STARTCHAR registered
ENCODING 174
SWIDTH 604 0
DWIDTH 13 0
BBX 13 15 0 0
BITMAP
0F80
1040
2020
5F90
5050
9048
9048
9F88
9308
9188
5190
50D0
2020
1040
0F80
ENDCHAR
STARTCHAR overscore
ENCODING 175
SWIDTH 500 0
DWIDTH 11 0
BBX 11 1 0 17
BITMAP
FFE0
ENDCHAR
STARTCHAR degree
ENCODING 176
SWIDTH 399 0
DWIDTH 8 0
BBX 7 7 0 8
BITMAP
38
7C
C6
C6
C6
7C
38
ENDCHAR
STARTCHAR plusminus
ENCODING 177
SWIDTH 548 0
DWIDTH 12 0
BBX 11 15 0 0
BITMAP
0E00
0E00
0E00
0E00
FFE0
FFE0
FFE0
0E00
0E00
0E00
0E00
0000
FFE0
FFE0
FFE0
ENDCHAR
STARTCHAR twosuperior
ENCODING 178
SWIDTH 272 0
DWIDTH 6 0
BBX 5 8 0 7
BITMAP
70
D8
18
38
30
70
E0
F8
ENDCHAR
STARTCHAR threesuperior
ENCODING 179
SWIDTH 272 0
DWIDTH 6 0
BBX 5 8 0 7
BITMAP
70
D8
18
30
18
D8
D8
70
ENDCHAR
STARTCHAR acute
ENCODING 180
SWIDTH 272 0
DWIDTH 6 0
BBX 3 2 2 12
BITMAP
60
C0
ENDCHAR
STARTCHAR mu1
ENCODING 181
SWIDTH 576 0
DWIDTH 12 0
BBX 10 15 1 -4
BITMAP
E1C0
E1C0
E1C0
E1C0
E1C0
E1C0
E1C0
E1C0
F3C0
FFC0
EDC0
E000
E000
E000
E000
ENDCHAR
STARTCHAR paragraph
ENCODING 182
SWIDTH 456 0
DWIDTH 10 0
BBX 10 19 0 -4
BITMAP
3FC0
7FC0
F980
F980
F980
F980
7980
3980
1980
1980
1980
1980
1980
1980
1980
1980
1980
1980
1980
ENDCHAR
STARTCHAR middot
ENCODING 183
SWIDTH 272 0
DWIDTH 6 0
BBX 2 2 2 6
BITMAP
C0
C0
ENDCHAR
STARTCHAR cedilla
ENCODING 184
SWIDTH 272 0
DWIDTH 6 0
BBX 5 4 0 -4
BITMAP
70
18
18
F0
ENDCHAR
STARTCHAR onesuperior
ENCODING 185
SWIDTH 272 0
DWIDTH 6 0
BBX 4 8 0 7
BITMAP
30
F0
B0
30
30
30
30
30
ENDCHAR
STARTCHAR ordmasculine
ENCODING 186
SWIDTH 298 0
DWIDTH 6 0
BBX 6 7 0 8
BITMAP
78
FC
CC
CC
CC
FC
78
ENDCHAR
STARTCHAR guillemotright
ENCODING 187
SWIDTH 456 0
DWIDTH 10 0
BBX 9 9 1 1
BITMAP
CC00
6600
7700
3300
3B80
3300
7700
6600
CC00
ENDCHAR
STARTCHAR onequarter
ENCODING 188
SWIDTH 684 0
DWIDTH 14 0
BBX 15 15 0 0
BITMAP
3010
F020
B020
3040
3040
3080
3080
310C
021C
021C
043C
042C
086C
087E
100C
ENDCHAR
STARTCHAR onehalf
ENCODING 189
SWIDTH 684 0
DWIDTH 14 0
BBX 14 15 0 0
BITMAP
3010
F020
B020
3040
3040
3080
3080
3138
026C
020C
041C
0418
0838
0870
107C
ENDCHAR
STARTCHAR threequarters
ENCODING 190
SWIDTH 684 0
DWIDTH 14 0
BBX 15 15 0 0
BITMAP
7010
D820
1820
3040
1840
D880
D880
710C
021C
021C
043C
042C
086C
087E
100C
ENDCHAR
STARTCHAR questiondown
ENCODING 191
SWIDTH 500 0
DWIDTH 11 0
BBX 9 15 1 -4
BITMAP
1C00
1C00
0000
1C00
1C00
3C00
3800
7800
F000
E000
E380
E380
E700
7F00
3E00
ENDCHAR
STARTCHAR Agrave
ENCODING 192
SWIDTH 591 0
DWIDTH 12 0
BBX 11 18 0 0
BITMAP
0600
0300
0000
1F00
1F00
1F00
1B00
3B80
3B80
3B80
3B80
3180
7FC0
7FC0
71C0
71C0
E0E0
E0E0
ENDCHAR
STARTCHAR Aacute
ENCODING 193
SWIDTH 591 0
DWIDTH 12 0
BBX 11 18 0 0
BITMAP
0600
0C00
0000
1F00
1F00
1F00
1B00
3B80
3B80
3B80
3B80
3180
7FC0
7FC0
71C0
71C0
E0E0
E0E0
ENDCHAR
STARTCHAR Acircumflex
ENCODING 194
SWIDTH 591 0
DWIDTH 12 0
BBX 11 19 0 0
BITMAP
0E00
1F00
3B80
0000
1F00
1F00
1F00
1B00
3B80
3B80
3B80
3B80
3180
7FC0
7FC0
71C0
71C0
E0E0
E0E0
ENDCHAR
STARTCHAR Atilde
ENCODING 195
SWIDTH 591 0
DWIDTH 12 0
BBX 11 19 0 0
BITMAP
1900
3F00
2600
0000
1F00
1F00
1F00
1B00
3B80
3B80
3B80
3B80
3180
7FC0
7FC0
71C0
71C0
E0E0
E0E0
ENDCHAR
STARTCHAR Adieresis
ENCODING 196
SWIDTH 591 0
DWIDTH 12 0
BBX 11 18 0 0
BITMAP
3300
3300
0000
1F00
1F00
1F00
1B00
3B80
3B80
3B80
3B80
3180
7FC0
7FC0
71C0
71C0
E0E0
E0E0
ENDCHAR
STARTCHAR Aring
ENCODING 197
SWIDTH 591 0
DWIDTH 12 0
BBX 11 20 0 0
BITMAP
0C00
0A00
0A00
0400
0000
1F00
1F00
1F00
1B00
3B80
3B80
3B80
3B80
3180
7FC0
7FC0
71C0
71C0
E0E0
E0E0
ENDCHAR
STARTCHAR AE
ENCODING 198
SWIDTH 819 0
DWIDTH 17 0
BBX 16 15 0 0
BITMAP
03FF
07FF
07E0
0EE0
0EE0
0EE0
1CFF
1CFF
3FE0
3FE0
38E0
70E0
70E0
70FF
E0FF
ENDCHAR
STARTCHAR Ccedilla
ENCODING 199
SWIDTH 591 0
DWIDTH 12 0
BBX 11 19 1 -4
BITMAP
1F00
3FC0
71C0
70E0
E0C0
E000
E000
E000
E000
E000
E0C0
70E0
71C0
3FC0
1F00
1C00
0600
0600
3C00
ENDCHAR
STARTCHAR Egrave
ENCODING 200
SWIDTH 546 0
DWIDTH 11 0
BBX 9 18 1 0
BITMAP
0C00
0600
0000
FF80
FF80
E000
E000
E000
E000
FF80
FF80
E000
E000
E000
E000
E000
FF80
FF80
ENDCHAR
STARTCHAR Eacute
ENCODING 201
SWIDTH 546 0
DWIDTH 11 0
BBX 9 18 1 0
BITMAP
0C00
1800
0000
FF80
FF80
E000
E000
E000
E000
FF80
FF80
E000
E000
E000
E000
E000
FF80
FF80
ENDCHAR
STARTCHAR Ecircumflex
ENCODING 202
SWIDTH 546 0
DWIDTH 11 0
BBX 9 19 1 0
BITMAP
1C00
3E00
7700
0000
FF80
FF80
E000
E000
E000
E000
FF80
FF80
E000
E000
E000
E000
E000
FF80
FF80
ENDCHAR
STARTCHAR Edieresis
ENCODING 203
SWIDTH 546 0
DWIDTH 11 0
BBX 9 18 1 0
BITMAP
6600
6600
0000
FF80
FF80
E000
E000
E000
E000
FF80
FF80
E000
E000
E000
E000
E000
FF80
FF80
ENDCHAR
STARTCHAR Igrave
ENCODING 204
SWIDTH 228 0
DWIDTH 5 0
BBX 3 18 1 0
BITMAP
C0
60
00
E0
E0
E0
E0
E0
E0
E0
E0
E0
E0
E0
E0
E0
E0
E0
ENDCHAR
STARTCHAR Iacute
ENCODING 205
SWIDTH 228 0
DWIDTH 5 0
BBX 3 18 1 0
BITMAP
60
C0
00
E0
E0
E0
E0
E0
E0
E0
E0
E0
E0
E0
E0
E0
E0
E0
ENDCHAR
STARTCHAR Icircumflex
ENCODING 206
SWIDTH 228 0
DWIDTH 5 0
BBX 7 19 -1 0
BITMAP
38
7C
EE
00
38
38
38
38
38
38
38
38
38
38
38
38
38
38
38
ENDCHAR
STARTCHAR Idieresis
ENCODING 207
SWIDTH 228 0
DWIDTH 5 0
BBX 6 18 -1 0
BITMAP
CC
CC
00
38
38
38
38
38
38
38
38
38
38
38
38
38
38
38
ENDCHAR
STARTCHAR Eth
ENCODING 208
SWIDTH 591 0
DWIDTH 12 0
BBX 11 15 0 0
BITMAP
7F00
7F80
71C0
70C0
70E0
70E0
FCE0
FCE0
70E0
70E0
70E0
70C0
71C0
7F80
7F00
ENDCHAR
STARTCHAR Ntilde
ENCODING 209
SWIDTH 591 0
DWIDTH 12 0
BBX 10 19 1 0
BITMAP
1900
3F00
2600
0000
E1C0
F1C0
F1C0
F1C0
F9C0
F9C0
EDC0
EDC0
EDC0
E7C0
E7C0
E7C0
E3C0
E3C0
E1C0
ENDCHAR
STARTCHAR Ograve
ENCODING 210
SWIDTH 638 0
DWIDTH 13 0
BBX 11 18 1 0
BITMAP
0600
0300
0000
1F00
3F80
71C0
71C0
E0E0
E0E0
E0E0
E0E0
E0E0
E0E0
E0E0
71C0
71C0
3F80
1F00
ENDCHAR
STARTCHAR Oacute
ENCODING 211
SWIDTH 638 0
DWIDTH 13 0
BBX 11 18 1 0
BITMAP
0600
0C00
0000
1F00
3F80
71C0
71C0
E0E0
E0E0
E0E0
E0E0
E0E0
E0E0
E0E0
71C0
71C0
3F80
1F00
ENDCHAR
STARTCHAR Ocircumflex
ENCODING 212
SWIDTH 638 0
DWIDTH 13 0
BBX 11 19 1 0
BITMAP
0E00
1F00
3B80
0000
1F00
3F80
71C0
71C0
E0E0
E0E0
E0E0
E0E0
E0E0
E0E0
E0E0
71C0
71C0
3F80
1F00
ENDCHAR
STARTCHAR Otilde
ENCODING 213
SWIDTH 638 0
DWIDTH 13 0
BBX 11 19 1 0
BITMAP
1900
3F00
2600
0000
1F00
3F80
71C0
71C0
E0E0
E0E0
E0E0
E0E0
E0E0
E0E0
E0E0
71C0
71C0
3F80
1F00
ENDCHAR
STARTCHAR Odieresis
ENCODING 214
SWIDTH 638 0
DWIDTH 13 0
BBX 11 18 1 0
BITMAP
3300
3300
0000
1F00
3F80
71C0
71C0
E0E0
E0E0
E0E0
E0E0
E0E0
E0E0
E0E0
71C0
71C0
3F80
1F00
ENDCHAR
STARTCHAR multiply
ENCODING 215
SWIDTH 479 0
DWIDTH 10 0
BBX 8 10 1 2
BITMAP
42
E7
FF
7E
3C
3C
7E
FF
E7
42
ENDCHAR
STARTCHAR Oslash
ENCODING 216
SWIDTH 638 0
DWIDTH 13 0
BBX 11 15 1 0
BITMAP
1F20
3FE0
71C0
71C0
E1E0
E3E0
E6E0
E4E0
ECE0
F8E0
F0E0
61C0
71C0
FF80
8F00
ENDCHAR
STARTCHAR Ugrave
ENCODING 217
SWIDTH 591 0
DWIDTH 12 0
BBX 10 18 1 0
BITMAP
0C00
0600
0000
E1C0
E1C0
E1C0
E1C0
E1C0
E1C0
E1C0
E1C0
E1C0
E1C0
E1C0
E1C0
F3C0
7F80
3F00
ENDCHAR
STARTCHAR Uacute
ENCODING 218
SWIDTH 591 0
DWIDTH 12 0
BBX 10 18 1 0
BITMAP
0C00
1800
0000
E1C0
E1C0
E1C0
E1C0
E1C0
E1C0
E1C0
E1C0
E1C0
E1C0
E1C0
E1C0
F3C0
7F80
3F00
ENDCHAR
STARTCHAR Ucircumflex
ENCODING 219
SWIDTH 591 0
DWIDTH 12 0
BBX 10 19 1 0
BITMAP
1C00
3E00
7700
0000
E1C0
E1C0
E1C0
E1C0
E1C0
E1C0
E1C0
E1C0
E1C0
E1C0
E1C0
E1C0
F3C0
7F80
3F00
ENDCHAR
STARTCHAR Udieresis
ENCODING 220
SWIDTH 591 0
DWIDTH 12 0
BBX 10 18 1 0
BITMAP
3300
3300
0000
E1C0
E1C0
E1C0
E1C0
E1C0
E1C0
E1C0
E1C0
E1C0
E1C0
E1C0
E1C0
F3C0
7F80
3F00
ENDCHAR
STARTCHAR Yacute
ENCODING 221
SWIDTH 546 0
DWIDTH 11 0
BBX 11 18 0 0
BITMAP
0600
0C00
0000
E0E0
71C0
71C0
3B80
3B80
1F00
1F00
0E00
0E00
0E00
0E00
0E00
0E00
0E00
0E00
ENDCHAR
STARTCHAR Thorn
ENCODING 222
SWIDTH 546 0
DWIDTH 11 0
BBX 9 15 1 0
BITMAP
E000
E000
E000
FE00
FF00
E380
E380
E380
E380
E380
FF00
FE00
E000
E000
E000
ENDCHAR
STARTCHAR germandbls
ENCODING 223
SWIDTH 500 0
DWIDTH 11 0
BBX 9 15 1 0
BITMAP
3E00
7F00
E700
E700
E700
EE00
EE00
EE00
EF00
E780
E380
E380
EB80
FF80
EF00
ENDCHAR
STARTCHAR agrave
ENCODING 224
SWIDTH 456 0
DWIDTH 10 0
BBX 8 14 1 0
BITMAP
18
0C
00
3E
7F
E7
07
0F
7F
F7
E7
E7
FF
77
ENDCHAR
STARTCHAR aacute
ENCODING 225
SWIDTH 456 0
DWIDTH 10 0
BBX 8 14 1 0
BITMAP
18
30
00
3E
7F
E7
07
0F
7F
F7
E7
E7
FF
77
ENDCHAR
STARTCHAR acircumflex
ENCODING 226
SWIDTH 456 0
DWIDTH 10 0
BBX 8 15 1 0
BITMAP
38
7C
EE
00
3E
7F
E7
07
0F
7F
F7
E7
E7
FF
77
ENDCHAR
STARTCHAR atilde
ENCODING 227
SWIDTH 456 0
DWIDTH 10 0
BBX 8 15 1 0
BITMAP
32
7E
4C
00
3E
7F
E7
07
0F
7F
F7
E7
E7
FF
77
ENDCHAR
STARTCHAR adieresis
ENCODING 228
SWIDTH 456 0
DWIDTH 10 0
BBX 8 14 1 0
BITMAP
66
66
00
3E
7F
E7
07
0F
7F
F7
E7
E7
FF
77
ENDCHAR
STARTCHAR aring
ENCODING 229
SWIDTH 456 0
DWIDTH 10 0
BBX 8 16 1 0
BITMAP
18
14
14
08
00
3E
7F
E7
07
0F
7F
F7
E7
E7
FF
77
ENDCHAR
STARTCHAR ae
ENCODING 230
SWIDTH 729 0
DWIDTH 15 0
BBX 13 11 1 0
BITMAP
3CE0
7FF0
E738
0738
1FF8
7FF8
F700
E738
E738
FFF0
79E0
ENDCHAR
STARTCHAR ccedilla
ENCODING 231
SWIDTH 456 0
DWIDTH 10 0
BBX 8 15 1 -4
BITMAP
3C
7E
67
E7
E0
E0
E0
E7
67
7E
3C
38
0C
0C
78
ENDCHAR
STARTCHAR egrave
ENCODING 232
SWIDTH 456 0
DWIDTH 10 0
BBX 8 14 1 0
BITMAP
18
0C
00
3C
7E
66
E7
FF
FF
E0
E7
67
7E
3C
ENDCHAR
STARTCHAR eacute
ENCODING 233
SWIDTH 456 0
DWIDTH 10 0
BBX 8 14 1 0
BITMAP
18
30
00
3C
7E
66
E7
FF
FF
E0
E7
67
7E
3C
ENDCHAR
STARTCHAR ecircumflex
ENCODING 234
SWIDTH 456 0
DWIDTH 10 0
BBX 8 15 1 0
BITMAP
38
7C
EE
00
3C
7E
66
E7
FF
FF
E0
E7
67
7E
3C
ENDCHAR
STARTCHAR edieresis
ENCODING 235
SWIDTH 456 0
DWIDTH 10 0
BBX 8 14 1 0
BITMAP
66
66
00
3C
7E
66
E7
FF
FF
E0
E7
67
7E
3C
ENDCHAR
STARTCHAR igrave
ENCODING 236
SWIDTH 228 0
DWIDTH 5 0
BBX 3 14 1 0
BITMAP
C0
60
00
E0
E0
E0
E0
E0
E0
E0
E0
E0
E0
E0
ENDCHAR
STARTCHAR iacute
ENCODING 237
SWIDTH 228 0
DWIDTH 5 0
BBX 3 14 1 0
BITMAP
60
C0
00
E0
E0
E0
E0
E0
E0
E0
E0
E0
E0
E0
ENDCHAR
STARTCHAR icircumflex
ENCODING 238
SWIDTH 228 0
DWIDTH 5 0
BBX 7 15 -1 0
BITMAP
38
7C
EE
00
38
38
38
38
38
38
38
38
38
38
38
ENDCHAR
STARTCHAR idieresis
ENCODING 239
SWIDTH 228 0
DWIDTH 5 0
BBX 6 14 -1 0
BITMAP
CC
CC
00
38
38
38
38
38
38
38
38
38
38
38
ENDCHAR
STARTCHAR eth
ENCODING 240
SWIDTH 500 0
DWIDTH 11 0
BBX 9 15 1 0
BITMAP
3A00
1C00
1E00
2600
3F00
7F00
7780
E380
E380
E380
E380
E380
7700
7F00
3C00
ENDCHAR
STARTCHAR ntilde
ENCODING 241
SWIDTH 500 0
DWIDTH 11 0
BBX 9 15 1 0
BITMAP
1900
3F00
2600
0000
EF00
FF80
F380
E380
E380
E380
E380
E380
E380
E380
E380
ENDCHAR
STARTCHAR ograve
ENCODING 242
SWIDTH 500 0
DWIDTH 11 0
BBX 9 14 1 0
BITMAP
1800
0C00
0000
3C00
7F00
7700
E380
E380
E380
E380
E380
7700
7F00
3C00
ENDCHAR
STARTCHAR oacute
ENCODING 243
SWIDTH 500 0
DWIDTH 11 0
BBX 9 14 1 0
BITMAP
0C00
1800
0000
3C00
7F00
7700
E380
E380
E380
E380
E380
7700
7F00
3C00
ENDCHAR
STARTCHAR ocircumflex
ENCODING 244
SWIDTH 500 0
DWIDTH 11 0
BBX 9 15 1 0
BITMAP
1C00
3E00
7700
0000
3C00
7F00
7700
E380
E380
E380
E380
E380
7700
7F00
3C00
ENDCHAR
STARTCHAR otilde
ENCODING 245
SWIDTH 500 0
DWIDTH 11 0
BBX 9 15 1 0
BITMAP
3200
7E00
4C00
0000
3C00
7F00
7700
E380
E380
E380
E380
E380
7700
7F00
3C00
ENDCHAR
STARTCHAR odieresis
ENCODING 246
SWIDTH 500 0
DWIDTH 11 0
BBX 9 14 1 0
BITMAP
3300
3300
0000
3C00
7F00
7700
E380
E380
E380
E380
E380
7700
7F00
3C00
ENDCHAR
STARTCHAR divide
ENCODING 247
SWIDTH 548 0
DWIDTH 12 0
BBX 11 9 0 2
BITMAP
0E00
0E00
0000
FFE0
FFE0
FFE0
0000
0E00
0E00
ENDCHAR
STARTCHAR oslash
ENCODING 248
SWIDTH 500 0
DWIDTH 11 0
BBX 9 11 1 0
BITMAP
1D00
7F00
7300
E380
E780
EB80
F380
E380
6700
7F00
9C00
ENDCHAR
STARTCHAR ugrave
ENCODING 249
SWIDTH 500 0
DWIDTH 11 0
BBX 9 14 1 0
BITMAP
1800
0C00
0000
E380
E380
E380
E380
E380
E380
E380
E380
E780
7F80
3B80
ENDCHAR
STARTCHAR uacute
ENCODING 250
SWIDTH 500 0
DWIDTH 11 0
BBX 9 14 1 0
BITMAP
1800
3000
0000
E380
E380
E380
E380
E380
E380
E380
E380
E780
7F80
3B80
ENDCHAR
STARTCHAR ucircumflex
ENCODING 251
SWIDTH 500 0
DWIDTH 11 0
BBX 9 15 1 0
BITMAP
1C00
3E00
7700
0000
E380
E380
E380
E380
E380
E380
E380
E380
E780
7F80
3B80
ENDCHAR
STARTCHAR udieresis
ENCODING 252
SWIDTH 500 0
DWIDTH 11 0
BBX 9 14 1 0
BITMAP
3300
3300
0000
E380
E380
E380
E380
E380
E380
E380
E380
E780
7F80
3B80
ENDCHAR
STARTCHAR yacute
ENCODING 253
SWIDTH 456 0
DWIDTH 10 0
BBX 10 18 0 -4
BITMAP
0C00
1800
0000
E1C0
E1C0
7380
7380
7380
3300
3300
3F00
1E00
1E00
1E00
0C00
1C00
7800
7000
ENDCHAR
STARTCHAR thorn
ENCODING 254
SWIDTH 500 0
DWIDTH 11 0
BBX 9 19 1 -4
BITMAP
E000
E000
E000
E000
EE00
FF00
F780
E380
E380
E380
E380
E380
F780
FF00
EE00
E000
E000
E000
E000
ENDCHAR
STARTCHAR ydieresis
ENCODING 255
SWIDTH 456 0
DWIDTH 10 0
BBX 10 18 0 -4
BITMAP
3300
3300
0000
E1C0
E1C0
7380
7380
7380
3300
3300
3F00
1E00
1E00
1E00
0C00
1C00
7800
7000
ENDCHAR
STARTCHAR Amacron
ENCODING 256
SWIDTH 591 0
DWIDTH 12 0
BBX 11 18 0 0
BITMAP
3F00
3F00
0000
1F00
1F00
1F00
1B00
3B80
3B80
3B80
3B80
3180
7FC0
7FC0
71C0
71C0
E0E0
E0E0
ENDCHAR
STARTCHAR amacron
ENCODING 257
SWIDTH 456 0
DWIDTH 10 0
BBX 8 14 1 0
BITMAP
7E
7E
00
3E
7F
E7
07
0F
7F
F7
E7
E7
FF
77
ENDCHAR
STARTCHAR Abreve
ENCODING 258
SWIDTH 591 0
DWIDTH 12 0
BBX 11 19 0 0
BITMAP
2100
3F00
1E00
0000
1F00
1F00
1F00
1B00
3B80
3B80
3B80
3B80
3180
7FC0
7FC0
71C0
71C0
E0E0
E0E0
ENDCHAR
STARTCHAR abreve
ENCODING 259
SWIDTH 456 0
DWIDTH 10 0
BBX 8 15 1 0
BITMAP
42
7E
3C
00
3E
7F
E7
07
0F
7F
F7
E7
E7
FF
77
ENDCHAR
STARTCHAR Aogonek
ENCODING 260
SWIDTH 591 0
DWIDTH 12 0
BBX 13 19 0 -4
BITMAP
1F00
1F00
1F00
1B00
3B80
3B80
3B80
3B80
3180
7FC0
7FC0
71C0
71C0
E0E0
E0E0
0040
0040
0078
0038
ENDCHAR
STARTCHAR aogonek
ENCODING 261
SWIDTH 456 0
DWIDTH 10 0
BBX 10 15 1 -4
BITMAP
3E00
7F00
E700
0700
0F00
7F00
F700
E700
E700
FF00
7700
0200
0200
03C0
01C0
ENDCHAR
STARTCHAR Cacute
ENCODING 262
SWIDTH 591 0
DWIDTH 12 0
BBX 11 18 1 0
BITMAP
0600
0C00
0000
1F00
3FC0
71C0
70E0
E0C0
E000
E000
E000
E000
E000
E0C0
70E0
71C0
3FC0
1F00
ENDCHAR
STARTCHAR cacute
ENCODING 263
SWIDTH 456 0
DWIDTH 10 0
BBX 8 14 1 0
BITMAP
18
30
00
3C
7E
67
E7
E0
E0
E0
E7
67
7E
3C
ENDCHAR
STARTCHAR Ccircumflex
ENCODING 264
SWIDTH 591 0
DWIDTH 12 0
BBX 11 19 1 0
BITMAP
0E00
1F00
3B80
0000
1F00
3FC0
71C0
70E0
E0C0
E000
E000
E000
E000
E000
E0C0
70E0
71C0
3FC0
1F00
ENDCHAR
STARTCHAR ccircumflex
ENCODING 265
SWIDTH 456 0
DWIDTH 10 0
BBX 8 15 1 0
BITMAP
38
7C
EE
00
3C
7E
67
E7
E0
E0
E0
E7
67
7E
3C
ENDCHAR
STARTCHAR Cdot
ENCODING 266
SWIDTH 591 0
DWIDTH 12 0
BBX 11 18 1 0
BITMAP
0E00
0E00
0000
1F00
3FC0
71C0
70E0
E0C0
E000
E000
E000
E000
E000
E0C0
70E0
71C0
3FC0
1F00
ENDCHAR
STARTCHAR cdot
ENCODING 267
SWIDTH 456 0
DWIDTH 10 0
BBX 8 14 1 0
BITMAP
38
38
00
3C
7E
67
E7
E0
E0
E0
E7
67
7E
3C
ENDCHAR
STARTCHAR Ccaron
ENCODING 268
SWIDTH 591 0
DWIDTH 12 0
BBX 11 19 1 0
BITMAP
3B80
1F00
0E00
0000
1F00
3FC0
71C0
70E0
E0C0
E000
E000
E000
E000
E000
E0C0
70E0
71C0
3FC0
1F00
ENDCHAR
STARTCHAR ccaron
ENCODING 269
SWIDTH 456 0
DWIDTH 10 0
BBX 8 15 1 0
BITMAP
EE
7C
38
00
3C
7E
67
E7
E0
E0
E0
E7
67
7E
3C
ENDCHAR
STARTCHAR Dcaron
ENCODING 270
SWIDTH 591 0
DWIDTH 12 0
BBX 10 19 1 0
BITMAP
3B80
1F00
0E00
0000
FE00
FF00
E380
E180
E1C0
E1C0
E1C0
E1C0
E1C0
E1C0
E1C0
E180
E380
FF00
FE00
ENDCHAR
STARTCHAR dcaron
ENCODING 271
SWIDTH 588 0
DWIDTH 12 0
BBX 13 15 1 0
BITMAP
03B8
03B8
0398
03B8
3BB0
7F80
F780
E380
E380
E380
E380
E380
F780
7F80
3B80
ENDCHAR
STARTCHAR Dslash
ENCODING 272
SWIDTH 591 0
DWIDTH 12 0
BBX 11 15 0 0
BITMAP
7F00
7F80
71C0
70C0
70E0
70E0
FCE0
FCE0
70E0
70E0
70E0
70C0
71C0
7F80
7F00
ENDCHAR
STARTCHAR dmacron
ENCODING 273
SWIDTH 503 0
DWIDTH 11 0
BBX 10 15 1 0
BITMAP
0380
0FC0
0380
0380
3B80
7F80
F780
E380
E380
E380
E380
E380
F780
7F80
3B80
ENDCHAR
STARTCHAR Emacron
ENCODING 274
SWIDTH 546 0
DWIDTH 11 0
BBX 9 18 1 0
BITMAP
7E00
7E00
0000
FF80
FF80
E000
E000
E000
E000
FF80
FF80
E000
E000
E000
E000
E000
FF80
FF80
ENDCHAR
STARTCHAR emacron
ENCODING 275
SWIDTH 456 0
DWIDTH 10 0
BBX 8 14 1 0
BITMAP
7E
7E
00
3C
7E
66
E7
FF
FF
E0
E7
67
7E
3C
ENDCHAR
STARTCHAR Ebreve
ENCODING 276
SWIDTH 546 0
DWIDTH 11 0
BBX 9 19 1 0
BITMAP
4200
7E00
3C00
0000
FF80
FF80
E000
E000
E000
E000
FF80
FF80
E000
E000
E000
E000
E000
FF80
FF80
ENDCHAR
STARTCHAR ebreve
ENCODING 277
SWIDTH 456 0
DWIDTH 10 0
BBX 8 15 1 0
BITMAP
42
7E
3C
00
3C
7E
66
E7
FF
FF
E0
E7
67
7E
3C
ENDCHAR
STARTCHAR Edot
ENCODING 278
SWIDTH 546 0
DWIDTH 11 0
BBX 9 18 1 0
BITMAP
1C00
1C00
0000
FF80
FF80
E000
E000
E000
E000
FF80
FF80
E000
E000
E000
E000
E000
FF80
FF80
ENDCHAR
STARTCHAR edot
ENCODING 279
SWIDTH 456 0
DWIDTH 10 0
BBX 8 14 1 0
BITMAP
38
38
00
3C
7E
66
E7
FF
FF
E0
E7
67
7E
3C
ENDCHAR
STARTCHAR Eogonek
ENCODING 280
SWIDTH 546 0
DWIDTH 11 0
BBX 9 19 1 -4
BITMAP
FF80
FF80
E000
E000
E000
E000
FF80
FF80
E000
E000
E000
E000
E000
FF80
FF80
0400
0400
0780
0380
ENDCHAR
STARTCHAR eogonek
ENCODING 281
SWIDTH 456 0
DWIDTH 10 0
BBX 8 15 1 -4
BITMAP
3C
7E
66
E7
FF
FF
E0
E7
67
7E
3C
10
10
1E
0E
ENDCHAR
STARTCHAR Ecaron
ENCODING 282
SWIDTH 546 0
DWIDTH 11 0
BBX 9 19 1 0
BITMAP
7700
3E00
1C00
0000
FF80
FF80
E000
E000
E000
E000
FF80
FF80
E000
E000
E000
E000
E000
FF80
FF80
ENDCHAR
STARTCHAR ecaron
ENCODING 283
SWIDTH 456 0
DWIDTH 10 0
BBX 8 15 1 0
BITMAP
EE
7C
38
00
3C
7E
66
E7
FF
FF
E0
E7
67
7E
3C
ENDCHAR
STARTCHAR Gcircumflex
ENCODING 284
SWIDTH 638 0
DWIDTH 13 0
BBX 11 19 1 0
BITMAP
0E00
1F00
3B80
0000
1F00
3FC0
71C0
70E0
E0E0
E000
E000
E3E0
E3E0
E0E0
E0E0
70E0
71E0
3FC0
0F00
ENDCHAR
STARTCHAR gcircumflex
ENCODING 285
SWIDTH 500 0
DWIDTH 11 0
BBX 9 19 1 -4
BITMAP
1C00
3E00
7700
0000
3B80
7F80
F780
E380
E380
E380
E380
E380
F780
7F80
3B80
0380
E380
FF00
7E00
ENDCHAR
STARTCHAR Gbreve
ENCODING 286
SWIDTH 638 0
DWIDTH 13 0
BBX 11 19 1 0
BITMAP
2100
3F00
1E00
0000
1F00
3FC0
71C0
70E0
E0E0
E000
E000
E3E0
E3E0
E0E0
E0E0
70E0
71E0
3FC0
0F00
ENDCHAR
STARTCHAR gbreve
ENCODING 287
SWIDTH 500 0
DWIDTH 11 0
BBX 9 19 1 -4
BITMAP
2100
3F00
1E00
0000
3B80
7F80
F780
E380
E380
E380
E380
E380
F780
7F80
3B80
0380
E380
FF00
7E00
ENDCHAR
STARTCHAR Gdot
ENCODING 288
SWIDTH 638 0
DWIDTH 13 0
BBX 11 18 1 0
BITMAP
0E00
0E00
0000
1F00
3FC0
71C0
70E0
E0E0
E000
E000
E3E0
E3E0
E0E0
E0E0
70E0
71E0
3FC0
0F00
ENDCHAR
STARTCHAR gdot
ENCODING 289
SWIDTH 500 0
DWIDTH 11 0
BBX 9 18 1 -4
BITMAP
1C00
1C00
0000
3B80
7F80
F780
E380
E380
E380
E380
E380
F780
7F80
3B80
0380
E380
FF00
7E00
ENDCHAR
STARTCHAR Gcedilla
ENCODING 290
SWIDTH 638 0
DWIDTH 13 0
BBX 11 19 1 -4
BITMAP
1F00
3FC0
71C0
70E0
E0E0
E000
E000
E3E0
E3E0
E0E0
E0E0
70E0
71E0
3FC0
0F00
1C00
0600
0600
3C00
ENDCHAR
STARTCHAR gcedilla
ENCODING 291
SWIDTH 500 0
DWIDTH 11 0
BBX 9 21 1 -4
BITMAP
0400
0800
0C00
0C00
0C00
0000
3B80
7F80
F780
E380
E380
E380
E380
E380
F780
7F80
3B80
0380
E380
FF00
7E00
ENDCHAR
STARTCHAR Hcircumflex
ENCODING 292
SWIDTH 591 0
DWIDTH 12 0
BBX 10 19 1 0
BITMAP
1C00
3E00
7700
0000
E1C0
E1C0
E1C0
E1C0
E1C0
E1C0
FFC0
FFC0
E1C0
E1C0
E1C0
E1C0
E1C0
E1C0
E1C0
ENDCHAR
STARTCHAR hcircumflex
ENCODING 293
SWIDTH 500 0
DWIDTH 11 0
BBX 9 19 1 0
BITMAP
1C00
3E00
7700
0000
E000
E000
E000
E000
EF00
FF80
F380
E380
E380
E380
E380
E380
E380
E380
E380
ENDCHAR
STARTCHAR Hbar
ENCODING 294
SWIDTH 591 0
DWIDTH 12 0
BBX 12 15 0 0
BITMAP
70E0
70E0
FFF0
FFF0
70E0
70E0
7FE0
7FE0
70E0
70E0
70E0
70E0
70E0
70E0
70E0
ENDCHAR
STARTCHAR hbar
ENCODING 295
SWIDTH 500 0
DWIDTH 11 0
BBX 10 15 0 0
BITMAP
7000
FE00
7000
7000
7780
7FC0
79C0
71C0
71C0
71C0
71C0
71C0
71C0
71C0
71C0
ENDCHAR
STARTCHAR Itilde
ENCODING 296
SWIDTH 228 0
DWIDTH 5 0
BBX 6 19 -1 0
BITMAP
64
FC
98
00
38
38
38
38
38
38
38
38
38
38
38
38
38
38
38
ENDCHAR
STARTCHAR itilde
ENCODING 297
SWIDTH 228 0
DWIDTH 5 0
BBX 6 15 -1 0
BITMAP
64
FC
98
00
38
38
38
38
38
38
38
38
38
38
38
ENDCHAR
STARTCHAR Imacron
ENCODING 298
SWIDTH 228 0
DWIDTH 5 0
BBX 6 18 -1 0
BITMAP
FC
FC
00
38
38
38
38
38
38
38
38
38
38
38
38
38
38
38
ENDCHAR
STARTCHAR imacron
ENCODING 299
SWIDTH 228 0
DWIDTH 5 0
BBX 6 14 -1 0
BITMAP
FC
FC
00
38
38
38
38
38
38
38
38
38
38
38
ENDCHAR
STARTCHAR Ibreve
ENCODING 300
SWIDTH 228 0
DWIDTH 5 0
BBX 6 19 -1 0
BITMAP
84
FC
78
00
38
38
38
38
38
38
38
38
38
38
38
38
38
38
38
ENDCHAR
STARTCHAR ibreve
ENCODING 301
SWIDTH 228 0
DWIDTH 5 0
BBX 6 15 -1 0
BITMAP
84
FÄ|ţ?8
00
38
38
38
38
38
38
38
38
38
38
38
ENDCHAR
STARTCHAR Iogonek
ENCODING 302
SWIDTH 228 0
DWIDTH 5 0
BBX 5 19 1 -4
BITMAP
E0
E0
E0
E0
E0
E0
E0
E0
E0
E0
E0
E0
E0
E0
E0
40
40
78
38
ENDCHAR
STARTCHAR iogonek
ENCODING 303
SWIDTH 228 0
DWIDTH 5 0
BBX 5 19 1 -4
BITMAP
E0
E0
E0
00
E0
E0
E0
E0
E0
E0
E0
E0
E0
E0
E0
40
40
78
38
ENDCHAR
STARTCHAR Idot
ENCODING 304
SWIDTH 228 0
DWIDTH 5 0
BBX 3 18 1 0
BITMAP
E0
E0
00
E0
E0
E0
E0
E0
E0
E0
E0
E0
E0
E0
E0
E0
E0
E0
ENDCHAR
STARTCHAR dotlessi
ENCODING 305
SWIDTH 228 0
DWIDTH 5 0
BBX 3 11 1 0
BITMAP
E0
E0
E0
E0
E0
E0
E0
E0
E0
E0
E0
ENDCHAR
STARTCHAR IJ
ENCODING 306
SWIDTH 684 0
DWIDTH 14 0
BBX 13 15 1 0
BITMAP
E038
E038
E038
E038
E038
E038
E038
E038
E038
E038
EE38
EE38
EF38
E7F0
E3E0
ENDCHAR
STARTCHAR ij
ENCODING 307
SWIDTH 456 0
DWIDTH 10 0
BBX 8 19 1 -4
BITMAP
E7
E7
E7
00
E7
E7
E7
E7
E7
E7
E7
E7
E7
E7
E7
07
07
1F
1E
ENDCHAR
STARTCHAR Jcircumflex
ENCODING 308
SWIDTH 456 0
DWIDTH 10 0
BBX 11 19 0 0
BITMAP
0380
07C0
0EE0
0000
0380
0380
0380
0380
0380
0380
0380
0380
0380
0380
E380
E380
F380
7F00
3E00
ENDCHAR
STARTCHAR jcircumflex
ENCODING 309
SWIDTH 228 0
DWIDTH 5 0
BBX 7 19 -1 -4
BITMAP
38
7C
EE
00
38
38
38
38
38
38
38
38
38
38
38
38
38
F8
F0
ENDCHAR
STARTCHAR Kcedilla
ENCODING 310
SWIDTH 591 0
DWIDTH 12 0
BBX 11 19 1 -4
BITMAP
E0E0
E1C0
E380
E780
E700
EE00
FF00
FF00
F700
E380
E380
E1C0
E1C0
E0E0
E0E0
0E00
0300
0300
1E00
ENDCHAR
STARTCHAR kcedilla
ENCODING 311
SWIDTH 456 0
DWIDTH 10 0
BBX 8 19 1 -4
BITMAP
E0
E0
E0
E0
E7
EE
EE
FC
FC
FE
FE
EE
E7
E7
E7
38
0C
0C
78
ENDCHAR
STARTCHAR kgreenlandic
ENCODING 312
SWIDTH 457 0
DWIDTH 10 0
BBX 9 11 1 0
BITMAP
E380
E700
EE00
FC00
F800
FC00
FC00
EE00
E700
E700
E380
ENDCHAR
STARTCHAR Lacute
ENCODING 313
SWIDTH 500 0
DWIDTH 11 0
BBX 9 18 1 0
BITMAP
1800
3000
0000
E000
E000
E000
E000
E000
E000
E000
E000
E000
E000
E000
E000
E000
FF80
FF80
ENDCHAR
STARTCHAR lacute
ENCODING 314
SWIDTH 228 0
DWIDTH 5 0
BBX 4 18 0 0
BITMAP
60
C0
00
70
70
70
70
70
70
70
70
70
70
70
70
70
70
70
ENDCHAR
STARTCHAR Lcedilla
ENCODING 315
SWIDTH 500 0
DWIDTH 11 0
BBX 9 19 1 -4
BITMAP
E000
E000
E000
E000
E000
E000
E000
E000
E000
E000
E000
E000
E000
FF80
FF80
3800
0C00
0C00
7800
ENDCHAR
STARTCHAR lcedilla
ENCODING 316
SWIDTH 228 0
DWIDTH 5 0
BBX 5 19 -1 -4
BITMAP
38
38
38
38
38
38
38
38
38
38
38
38
38
38
38
70
18
18
F0
ENDCHAR
STARTCHAR Lcaron
ENCODING 317
SWIDTH 500 0
DWIDTH 11 0
BBX 9 15 1 0
BITMAP
E600
E600
E600
E200
E400
E000
E000
E000
E000
E000
E000
E000
E000
FF80
FF80
ENDCHAR
STARTCHAR lcaron
ENCODING 318
SWIDTH 315 0
DWIDTH 7 0
BBX 7 15 1 0
BITMAP
EE
EE
E6
EE
EC
E0
E0
E0
E0
E0
E0
E0
E0
E0
E0
ENDCHAR
STARTCHAR Ldot
ENCODING 319
SWIDTH 500 0
DWIDTH 11 0
BBX 9 15 1 0
BITMAP
E000
E000
E000
E000
E000
E000
E000
E700
E700
E000
E000
E000
E000
FF80
FF80
ENDCHAR
STARTCHAR ldot
ENCODING 320
SWIDTH 333 0
DWIDTH 7 0
BBX 7 15 1 0
BITMAP
E0
E0
E0
E0
E0
E0
E0
EE
EE
E0
E0
E0
E0
E0
E0
ENDCHAR
STARTCHAR Lslash
ENCODING 321
SWIDTH 500 0
DWIDTH 11 0
BBX 10 15 0 0
BITMAP
7000
7000
7000
7000
7000
7C00
7C00
7800
7000
F000
F000
7000
7000
7FC0
7FC0
ENDCHAR
STARTCHAR lslash
ENCODING 322
SWIDTH 228 0
DWIDTH 5 0
BBX 5 15 0 0
BITMAP
70
70
70
70
70
78
70
70
70
F0
70
70
70
70
70
ENDCHAR
STARTCHAR Nacute
ENCODING 323
SWIDTH 591 0
DWIDTH 12 0
BBX 10 18 1 0
BITMAP
0C00
1800
0000
E1C0
F1C0
F1C0
F1C0
F9C0
F9C0
EDC0
EDC0
EDC0
E7C0
E7C0
E7C0
E3C0
E3C0
E1C0
ENDCHAR
STARTCHAR nacute
ENCODING 324
SWIDTH 500 0
DWIDTH 11 0
BBX 9 14 1 0
BITMAP
0C00
1800
0000
EF00
FF80
F380
E380
E380
E380
E380
E380
E380
E380
E380
ENDCHAR
STARTCHAR Ncedilla
ENCODING 325
SWIDTH 591 0
DWIDTH 12 0
BBX 10 19 1 -4
BITMAP
E1C0
F1C0
F1C0
F1C0
F9C0
F9C0
EDC0
EDC0
EDC0
E7C0
E7C0
E7C0
E3C0
E3C0
E1C0
1C00
0600
0600
3C00
ENDCHAR
STARTCHAR ncedilla
ENCODING 326
SWIDTH 500 0
DWIDTH 11 0
BBX 9 15 1 -4
BITMAP
EF00
FF80
F380
E380
E380
E380
E380
E380
E380
E380
E380
3800
0C00
0C00
7800
ENDCHAR
STARTCHAR Ncaron
ENCODING 327
SWIDTH 591 0
DWIDTH 12 0
BBX 10 19 1 0
BITMAP
7700
3E00
1C00
0000
E1C0
F1C0
F1C0
F1C0
F9C0
F9C0
EDC0
EDC0
EDC0
E7C0
E7C0
E7C0
E3C0
E3C0
E1C0
ENDCHAR
STARTCHAR ncaron
ENCODING 328
SWIDTH 500 0
DWIDTH 11 0
BBX 9 15 1 0
BITMAP
7700
3E00
1C00
0000
EF00
FF80
F380
E380
E380
E380
E380
E380
E380
E380
E380
ENDCHAR
STARTCHAR napostrophe
ENCODING 329
SWIDTH 675 0
DWIDTH 14 0
BBX 13 15 1 0
BITMAP
E000
E000
6000
E000
CEF0
0FF8
0F38
0E38
0E38
0E38
0E38
0E38
0E38
0E38
0E38
ENDCHAR
STARTCHAR Eng
ENCODING 330
SWIDTH 592 0
DWIDTH 12 0
BBX 10 15 1 0
BITMAP
E700
FF80
F380
E1C0
E1C0
E1C0
E1C0
E1C0
E1C0
E1C0
E1C0
E1C0
E1C0
EF80
EF00
ENDCHAR
STARTCHAR eng
ENCODING 331
SWIDTH 500 0
DWIDTH 11 0
BBX 9 15 1 -4
BITMAP
EF00
FF80
F380
E380
E380
E380
E380
E380
E380
E380
E380
0380
0380
0F80
0F00
ENDCHAR
STARTCHAR Omacron
ENCODING 332
SWIDTH 638 0
DWIDTH 13 0
BBX 11 18 1 0
BITMAP
3F00
3F00
0000
1F00
3F80
71C0
71C0
E0E0
E0E0
E0E0
E0E0
E0E0
E0E0
E0E0
71C0
71C0
3F80
1F00
ENDCHAR
STARTCHAR omacron
ENCODING 333
SWIDTH 500 0
DWIDTH 11 0
BBX 9 14 1 0
BITMAP
3F00
3F00
0000
3C00
7F00
7700
E380
E380
E380
E380
E380
7700
7F00
3C00
ENDCHAR
STARTCHAR Obreve
ENCODING 334
SWIDTH 638 0
DWIDTH 13 0
BBX 11 19 1 0
BITMAP
2100
3F00
1E00
0000
1F00
3F80
71C0
71C0
E0E0
E0E0
E0E0
E0E0
E0E0
E0E0
E0E0
71C0
71C0
3F80
1F00
ENDCHAR
STARTCHAR obreve
ENCODING 335
SWIDTH 500 0
DWIDTH 11 0
BBX 9 15 1 0
BITMAP
4200
7E00
3C00
0000
3C00
7F00
7700
E380
E380
E380
E380
E380
7700
7F00
3C00
ENDCHAR
STARTCHAR Odblacute
ENCODING 336
SWIDTH 638 0
DWIDTH 13 0
BBX 11 18 1 0
BITMAP
0CC0
1980
0000
1F00
3F80
71C0
71C0
E0E0
E0E0
E0E0
E0E0
E0E0
E0E0
E0E0
71C0
71C0
3F80
1F00
ENDCHAR
STARTCHAR odblacute
ENCODING 337
SWIDTH 500 0
DWIDTH 11 0
BBX 9 14 1 0
BITMAP
1980
3300
0000
3C00
7F00
7700
E380
E380
E380
E380
E380
7700
7F00
3C00
ENDCHAR
STARTCHAR OE
ENCODING 338
SWIDTH 819 0
DWIDTH 17 0
BBX 15 15 1 0
BITMAP
1EFE
3FFE
71E0
71E0
E0E0
E0E0
E0FE
E0FE
E0E0
E0E0
E0E0
71E0
71E0
3FFE
1EFE
ENDCHAR
STARTCHAR oe
ENCODING 339
SWIDTH 773 0
DWIDTH 16 0
BBX 14 11 1 0
BITMAP
3CF0
7FF8
779C
E39C
E3FC
E3FC
E380
E39C
779C
7FF8
3CF0
ENDCHAR
STARTCHAR Racute
ENCODING 340
SWIDTH 591 0
DWIDTH 12 0
BBX 11 18 1 0
BITMAP
0C00
1800
0000
FF00
FF80
E1C0
E1C0
E1C0
E1C0
E1C0
FF80
FF00
E700
E380
E380
E1C0
E1C0
E0E0
ENDCHAR
STARTCHAR racute
ENCODING 341
SWIDTH 318 0
DWIDTH 7 0
BBX 6 14 1 0
BITMAP
30
60
00
EC
FC
F0
E0
E0
E0
E0
E0
E0
E0
E0
ENDCHAR
STARTCHAR Rcedilla
ENCODING 342
SWIDTH 591 0
DWIDTH 12 0
BBX 11 19 1 -4
BITMAP
FF00
FF80
E1C0
E1C0
E1C0
E1C0
E1C0
FF80
FF00
E700
E380
E380
E1C0
E1C0
E0E0
1C00
0600
0600
3C00
ENDCHAR
STARTCHAR rcedilla
ENCODING 343
SWIDTH 318 0
DWIDTH 7 0
BBX 6 15 1 -4
BITMAP
EC
FC
F0
E0
E0
E0
E0
E0
E0
E0
E0
70
18
18
F0
ENDCHAR
STARTCHAR Rcaron
ENCODING 344
SWIDTH 591 0
DWIDTH 12 0
BBX 11 19 1 0
BITMAP
7700
3E00
1C00
0000
FF00
FF80
E1C0
E1C0
E1C0
E1C0
E1C0
FF80
FF00
E700
E380
E380
E1C0
E1C0
E0E0
ENDCHAR
STARTCHAR rcaron
ENCODING 345
SWIDTH 318 0
DWIDTH 7 0
BBX 7 15 0 0
BITMAP
EE
7C
38
00
76
7E
78
70
70
70
70
70
70
70
70
ENDCHAR
STARTCHAR Sacute
ENCODING 346
SWIDTH 546 0
DWIDTH 11 0
BBX 10 18 0 0
BITMAP
0600
0C00
0000
3E00
7F80
F380
E1C0
E1C0
F000
7E00
7F80
1FC0
03C0
E1C0
E1C0
73C0
7F80
1F00
ENDCHAR
STARTCHAR sacute
ENCODING 347
SWIDTH 456 0
DWIDTH 10 0
BBX 8 14 1 0
BITMAP
18
30
00
3C
7F
E7
E0
F8
7E
1F
07
E7
7E
3C
ENDCHAR
STARTCHAR Scircumflex
ENCODING 348
SWIDTH 546 0
DWIDTH 11 0
BBX 10 19 0 0
BITMAP
0E00
1F00
3B80
0000
3E00
7F80
F380
E1C0
E1C0
F000
7E00
7F80
1FC0
03C0
E1C0
E1C0
73C0
7F80
1F00
ENDCHAR
STARTCHAR scircumflex
ENCODING 349
SWIDTH 456 0
DWIDTH 10 0
BBX 8 15 1 0
BITMAP
38
7C
EE
00
3C
7F
E7
E0
F8
7E
1F
07
E7
7E
3C
ENDCHAR
STARTCHAR Scedilla
ENCODING 350
SWIDTH 546 0
DWIDTH 11 0
BBX 10 19 0 -4
BITMAP
3E00
7F80
F380
E1C0
E1C0
F000
7E00
7F80
1FC0
03C0
E1C0
E1C0
73C0
7F80
1F00
1C00
0600
0600
3C00
ENDCHAR
STARTCHAR scedilla
ENCODING 351
SWIDTH 456 0
DWIDTH 10 0
BBX 8 15 1 -4
BITMAP
3C
7F
E7
E0
F8
7E
1F
07
E7
7E
3C
38
0C
0C
78
ENDCHAR
STARTCHAR Scaron
ENCODING 352
SWIDTH 546 0
DWIDTH 11 0
BBX 10 19 0 0
BITMAP
3B80
1F00
0E00
0000
3E00
7F80
F380
E1C0
E1C0
F000
7E00
7F80
1FC0
03C0
E1C0
E1C0
73C0
7F80
1F00
ENDCHAR
STARTCHAR scaron
ENCODING 353
SWIDTH 456 0
DWIDTH 10 0
BBX 8 15 1 0
BITMAP
EE
7C
38
00
3C
7F
E7
E0
F8
7E
1F
07
E7
7E
3C
ENDCHAR
STARTCHAR Tcedilla
ENCODING 354
SWIDTH 500 0
DWIDTH 11 0
BBX 11 19 0 -4
BITMAP
FFE0
FFE0
0E00
0E00
0E00
0E00
0E00
0E00
0E00
0E00
0E00
0E00
0E00
0E00
0E00
0E00
0300
0300
1E00
ENDCHAR
STARTCHAR tcedilla
ENCODING 355
SWIDTH 272 0
DWIDTH 6 0
BBX 6 19 0 -4
BITMAP
10
70
70
70
FC
FC
70
70
70
70
70
70
70
7C
3C
70
18
18
F0
ENDCHAR
STARTCHAR Tcaron
ENCODING 356
SWIDTH 500 0
DWIDTH 11 0
BBX 11 19 0 0
BITMAP
3B80
1F00
0E00
0000
FFE0
FFE0
0E00
0E00
0E00
0E00
0E00
0E00
0E00
0E00
0E00
0E00
0E00
0E00
0E00
ENDCHAR
STARTCHAR tcaron
ENCODING 357
SWIDTH 393 0
DWIDTH 8 0
BBX 9 15 0 0
BITMAP
1180
7180
7180
7080
FD00
FC00
7000
7000
7000
7000
7000
7000
7000
7C00
3C00
ENDCHAR
STARTCHAR Tbar
ENCODING 358
SWIDTH 500 0
DWIDTH 11 0
BBX 11 15 0 0
BITMAP
FFE0
FFE0
0E00
0E00
0E00
0E00
0E00
7FC0
7FC0
0E00
0E00
0E00
0E00
0E00
0E00
ENDCHAR
STARTCHAR tbar
ENCODING 359
SWIDTH 272 0
DWIDTH 6 0
BBX 6 15 0 0
BITMAP
10
70
70
70
FC
FC
70
70
70
FC
FC
70
70
7C
3C
ENDCHAR
STARTCHAR Utilde
ENCODING 360
SWIDTH 591 0
DWIDTH 12 0
BBX 10 19 1 0
BITMAP
1900
3F00
2600
0000
E1C0
E1C0
E1C0
E1C0
E1C0
E1C0
E1C0
E1C0
E1C0
E1C0
E1C0
E1C0
F3C0
7F80
3F00
ENDCHAR
STARTCHAR utilde
ENCODING 361
SWIDTH 500 0
DWIDTH 11 0
BBX 9 15 1 0
BITMAP
1900
3F00
2600
0000
E380
E380
E380
E380
E380
E380
E380
E380
E780
7F80
3B80
ENDCHAR
STARTCHAR Umacron
ENCODING 362
SWIDTH 591 0
DWIDTH 12 0
BBX 10 18 1 0
BITMAP
3F00
3F00
0000
E1C0
E1C0
E1C0
E1C0
E1C0
E1C0
E1C0
E1C0
E1C0
E1C0
E1C0
E1C0
F3C0
7F80
3F00
ENDCHAR
STARTCHAR umacron
ENCODING 363
SWIDTH 500 0
DWIDTH 11 0
BBX 9 14 1 0
BITMAP
3F00
3F00
0000
E380
E380
E380
E380
E380
E380
E380
E380
E780
7F80
3B80
ENDCHAR
STARTCHAR Ubreve
ENCODING 364
SWIDTH 591 0
DWIDTH 12 0
BBX 10 19 1 0
BITMAP
2100
3F00
1E00
0000
E1C0
E1C0
E1C0
E1C0
E1C0
E1C0
E1C0
E1C0
E1C0
E1C0
E1C0
E1C0
F3C0
7F80
3F00
ENDCHAR
STARTCHAR ubreve
ENCODING 365
SWIDTH 500 0
DWIDTH 11 0
BBX 9 15 1 0
BITMAP
2100
3F00
1E00
0000
E380
E380
E380
E380
E380
E380
E380
E380
E780
7F80
3B80
ENDCHAR
STARTCHAR Uring
ENCODING 366
SWIDTH 591 0
DWIDTH 12 0
BBX 10 20 1 0
BITMAP
0C00
0A00
0A00
0400
0000
E1C0
E1C0
E1C0
E1C0
E1C0
E1C0
E1C0
E1C0
E1C0
E1C0
E1C0
E1C0
F3C0
7F80
3F00
ENDCHAR
STARTCHAR uring
ENCODING 367
SWIDTH 500 0
DWIDTH 11 0
BBX 9 16 1 0
BITMAP
1800
1400
1400
0800
0000
E380
E380
E380
E380
E380
E380
E380
E380
E780
7F80
3B80
ENDCHAR
STARTCHAR Udblacute
ENCODING 368
SWIDTH 591 0
DWIDTH 12 0
BBX 10 18 1 0
BITMAP
1980
3300
0000
E1C0
E1C0
E1C0
E1C0
E1C0
E1C0
E1C0
E1C0
E1C0
E1C0
E1C0
E1C0
F3C0
7F80
3F00
ENDCHAR
STARTCHAR udblacute
ENCODING 369
SWIDTH 500 0
DWIDTH 11 0
BBX 9 14 1 0
BITMAP
1980
3300
0000
E380
E380
E380
E380
E380
E380
E380
E380
E780
7F80
3B80
ENDCHAR
STARTCHAR Uogonek
ENCODING 370
SWIDTH 591 0
DWIDTH 12 0
BBX 10 19 1 -4
BITMAP
E1C0
E1C0
E1C0
E1C0
E1C0
E1C0
E1C0
E1C0
E1C0
E1C0
E1C0
E1C0
F3C0
7F80
3F00
0800
0800
0F00
0700
ENDCHAR
STARTCHAR uogonek
ENCODING 371
SWIDTH 500 0
DWIDTH 11 0
BBX 11 15 1 -4
BITMAP
E380
E380
E380
E380
E380
E380
E380
E380
E780
7F80
3B80
0100
0100
01E0
00E0
ENDCHAR
STARTCHAR Wcircumflex
ENCODING 372
SWIDTH 773 0
DWIDTH 16 0
BBX 16 19 0 0
BITMAP
0380
07C0
0EE0
0000
E187
E1C7
E3C7
E3C7
73CE
73CE
766E
766E
766E
766E
766E
3E7C
3C3C
3C3C
3C3C
ENDCHAR
STARTCHAR wcircumflex
ENCODING 373
SWIDTH 638 0
DWIDTH 13 0
BBX 13 15 0 0
BITMAP
0700
0F80
1DC0
0000
E738
E738
7770
7770
7570
7570
3560
3DE0
3DE0
3DE0
3DE0
ENDCHAR
STARTCHAR Ycircumflex
ENCODING 374
SWIDTH 546 0
DWIDTH 11 0
BBX 11 19 0 0
BITMAP
0E00
1F00
3B80
0000
E0E0
71C0
71C0
3B80
3B80
1F00
1F00
0E00
0E00
0E00
0E00
0E00
0E00
0E00
0E00
ENDCHAR
STARTCHAR ycircumflex
ENCODING 375
SWIDTH 456 0
DWIDTH 10 0
BBX 10 19 0 -4
BITMAP
1C00
3E00
7700
0000
E1C0
E1C0
7380
7380
7380
3300
3300
3F00
1E00
1E00
1E00
0C00
1C00
7800
7000
ENDCHAR
STARTCHAR Ydieresis
ENCODING 376
SWIDTH 546 0
DWIDTH 11 0
BBX 11 18 0 0
BITMAP
3300
3300
0000
E0E0
71C0
71C0
3B80
3B80
1F00
1F00
0E00
0E00
0E00
0E00
0E00
0E00
0E00
0E00
ENDCHAR
STARTCHAR Zacute
ENCODING 377
SWIDTH 500 0
DWIDTH 11 0
BBX 9 18 1 0
BITMAP
0C00
1800
0000
7F80
7F80
0380
0700
0700
0E00
1C00
1C00
3800
3800
7000
7000
E000
FF80
FF80
ENDCHAR
STARTCHAR zacute
ENCODING 378
SWIDTH 410 0
DWIDTH 9 0
BBX 9 14 0 0
BITMAP
1800
3000
0000
FF80
FF80
0700
0700
0E00
1C00
3800
7000
7000
FF80
FF80
ENDCHAR
STARTCHAR Zdot
ENCODING 379
SWIDTH 500 0
DWIDTH 11 0
BBX 9 18 1 0
BITMAP
0E00
0E00
0000
7F80
7F80
0380
0700
0700
0E00
1C00
1C00
3800
3800
7000
7000
E000
FF80
FF80
ENDCHAR
STARTCHAR zdot
ENCODING 380
SWIDTH 410 0
DWIDTH 9 0
BBX 9 14 0 0
BITMAP
1C00
1C00
0000
FF80
FF80
0700
0700
0E00
1C00
3800
7000
7000
FF80
FF80
ENDCHAR
STARTCHAR Zcaron
ENCODING 381
SWIDTH 500 0
DWIDTH 11 0
BBX 9 19 1 0
BITMAP
3B80
1F00
0E00
0000
7F80
7F80
0380
0700
0700
0E00
1C00
1C00
3800
3800
7000
7000
E000
FF80
FF80
ENDCHAR
STARTCHAR zcaron
ENCODING 382
SWIDTH 410 0
DWIDTH 9 0
BBX 9 15 0 0
BITMAP
3B80
1F00
0E00
0000
FF80
FF80
0700
0700
0E00
1C00
3800
7000
7000
FF80
FF80
ENDCHAR
STARTCHAR longs
ENCODING 383
SWIDTH 228 0
DWIDTH 5 0
BBX 5 15 1 0
BITMAP
78
F8
E0
E0
E0
E0
E0
E0
E0
E0
E0
E0
E0
E0
E0
ENDCHAR
STARTCHAR florin
ENCODING 402
SWIDTH 456 0
DWIDTH 10 0
BBX 11 19 0 -4
BITMAP
03E0
07E0
0700
0700
3FC0
3FC0
0E00
0E00
0E00
0E00
0E00
0E00
1C00
1C00
1C00
1C00
1C00
F800
F800
ENDCHAR
STARTCHAR Aringacute
ENCODING 506
SWIDTH 610 0
DWIDTH 13 0
BBX 11 23 0 0
BITMAP
0600
0C00
0000
0C00
0A00
0A00
0400
0000
1F00
1F00
1F00
1B00
3B80
3B80
3B80
3B80
3180
7FC0
7FC0
71C0
71C0
E0E0
E0E0
ENDCHAR
STARTCHAR aringacute
ENCODING 507
SWIDTH 500 0
DWIDTH 11 0
BBX 8 19 1 0
BITMAP
0C
18
00
18
14
14
08
00
3E
7F
E7
07
0F
7F
F7
E7
E7
FF
77
ENDCHAR
STARTCHAR AEacute
ENCODING 508
SWIDTH 819 0
DWIDTH 17 0
BBX 16 18 0 0
BITMAP
0030
0060
0000
03FF
07FF
07E0
0EE0
0EE0
0EE0
1CFF
1CFF
3FE0
3FE0
38E0
70E0
70E0
70FF
E0FF
ENDCHAR
STARTCHAR aeacute
ENCODING 509
SWIDTH 729 0
DWIDTH 15 0
BBX 13 14 1 0
BITMAP
0180
0300
0000
3CE0
7FF0
E738
0738
1FF8
7FF8
F700
E738
E738
FFF0
79E0
ENDCHAR
STARTCHAR Oslashacute
ENCODING 510
SWIDTH 638 0
DWIDTH 13 0
BBX 11 18 1 0
BITMAP
0300
0600
0000
1F20
3FE0
71C0
71C0
E1E0
E3E0
E6E0
E4E0
ECE0
F8E0
F0E0
61C0
71C0
FF80
8F00
ENDCHAR
STARTCHAR oslashacute
ENCODING 511
SWIDTH 500 0
DWIDTH 11 0
BBX 9 14 1 0
BITMAP
0600
0C00
0000
1D00
7F00
7300
E380
E780
EB80
F380
E380
6700
7F00
9C00
ENDCHAR
STARTCHAR uni0218
ENCODING 536
SWIDTH 546 0
DWIDTH 11 0
BBX 10 21 0 -6
BITMAP
3E00
7F80
F380
E1C0
E1C0
F000
7E00
7F80
1FC0
03C0
E1C0
E1C0
73C0
7F80
1F00
0000
0C00
0C00
0C00
0400
0800
ENDCHAR
STARTCHAR uni0219
ENCODING 537
SWIDTH 456 0
DWIDTH 10 0
BBX 8 17 1 -6
BITMAP
3C
7F
E7
E0
F8
7E
1F
07
E7
7E
3C
00
18
18
18
08
10
ENDCHAR
STARTCHAR uni021A
ENCODING 538
SWIDTH 500 0
DWIDTH 11 0
BBX 11 21 0 -6
BITMAP
FFE0
FFE0
0E00
0E00
0E00
0E00
0E00
0E00
0E00
0E00
0E00
0E00
0E00
0E00
0E00
0000
0600
0600
0600
0200
0400
ENDCHAR
STARTCHAR uni021B
ENCODING 539
SWIDTH 272 0
DWIDTH 6 0
BBX 6 21 0 -6
BITMAP
10
70
70
70
FC
FC
70
70
70
70
70
70
70
7C
3C
00
30
30
30
10
20
ENDCHAR
STARTCHAR circumflex
ENCODING 710
SWIDTH 272 0
DWIDTH 7 0
BBX 7 3 0 12
BITMAP
38
7C
EE
ENDCHAR
STARTCHAR caron
ENCODING 711
SWIDTH 272 0
DWIDTH 7 0
BBX 7 3 0 12
BITMAP
EE
7C
38
ENDCHAR
STARTCHAR macron
ENCODING 713
SWIDTH 272 0
DWIDTH 6 0
BBX 6 2 0 13
BITMAP
FC
FC
ENDCHAR
STARTCHAR breve
ENCODING 728
SWIDTH 272 0
DWIDTH 6 0
BBX 6 3 0 12
BITMAP
84
FC
78
ENDCHAR
STARTCHAR dotaccent
ENCODING 729
SWIDTH 272 0
DWIDTH 7 0
BBX 3 2 2 13
BITMAP
E0
E0
ENDCHAR
STARTCHAR ring
ENCODING 730
SWIDTH 272 0
DWIDTH 6 0
BBX 3 4 1 12
BITMAP
C0
A0
A0
40
ENDCHAR
STARTCHAR ogonek
ENCODING 731
SWIDTH 272 0
DWIDTH 6 0
BBX 4 4 1 -4
BITMAP
80
80
F0
70
ENDCHAR
STARTCHAR tilde
ENCODING 732
SWIDTH 272 0
DWIDTH 6 0
BBX 6 3 0 12
BITMAP
64
FC
98
ENDCHAR
STARTCHAR hungarumlaut
ENCODING 733
SWIDTH 272 0
DWIDTH 7 0
BBX 7 2 1 12
BITMAP
66
CC
ENDCHAR
STARTCHAR semicolon.dup2
ENCODING 894
SWIDTH 272 0
DWIDTH 6 0
BBX 3 14 2 -3
BITMAP
E0
E0
00
00
00
00
00
00
00
E0
E0
60
E0
C0
ENDCHAR
STARTCHAR tonos
ENCODING 900
SWIDTH 272 0
DWIDTH 6 0
BBX 4 3 2 12
BITMAP
70
60
C0
ENDCHAR
STARTCHAR dieresistonos
ENCODING 901
SWIDTH 272 0
DWIDTH 6 0
BBX 8 3 -2 12
BITMAP
18
DB
D3
ENDCHAR
STARTCHAR Alphatonos
ENCODING 902
SWIDTH 591 0
DWIDTH 12 0
BBX 11 15 0 0
BITMAP
7F00
7F00
DF00
1B00
3B80
3B80
3B80
3B80
3180
7FC0
7FC0
71C0
71C0
E0E0
E0E0
ENDCHAR
STARTCHAR anoteleia
ENCODING 903
SWIDTH 272 0
DWIDTH 6 0
BBX 3 2 2 9
BITMAP
E0
E0
ENDCHAR
STARTCHAR Epsilontonos
ENCODING 904
SWIDTH 700 0
DWIDTH 15 0
BBX 14 15 -1 0
BITMAP
77FC
67FC
C700
0700
0700
0700
07FC
07FC
0700
0700
0700
0700
0700
07FC
07FC
ENDCHAR
STARTCHAR Etatonos
ENCODING 905
SWIDTH 743 0
DWIDTH 16 0
BBX 15 15 -1 0
BITMAP
770E
670E
C70E
070E
070E
070E
07FE
07FE
070E
070E
070E
070E
070E
070E
070E
ENDCHAR
STARTCHAR Iotatonos
ENCODING 906
SWIDTH 385 0
DWIDTH 8 0
BBX 8 15 -1 0
BITMAP
77
67
C7
07
07
07
07
07
07
07
07
07
07
07
07
ENDCHAR
STARTCHAR Omicrontonos
ENCODING 908
SWIDTH 674 0
DWIDTH 14 0
BBX 13 15 0 0
BITMAP
77C0
6FE0
DC70
1C70
3838
3838
3838
3838
3838
3838
3838
1C70
1C70
0FE0
07C0
ENDCHAR
STARTCHAR Upsilontonos
ENCODING 910
SWIDTH 760 0
DWIDTH 16 0
BBX 15 15 0 0
BITMAP
7E0E
671C
C71C
03B8
03B8
01F0
01F0
00E0
00E0
00E0
00E0
00E0
00E0
00E0
00E0
ENDCHAR
STARTCHAR Omegatonos
ENCODING 911
SWIDTH 687 0
DWIDTH 14 0
BBX 14 15 0 0
BITMAP
73C0
6FF0
DE78
1C38
381C
381C
381C
381C
381C
381C
1818
1C38
0C30
3E7C
3E7C
ENDCHAR
STARTCHAR iotadieresistonos
ENCODING 912
SWIDTH 228 0
DWIDTH 5 0
BBX 8 15 -2 0
BITMAP
18
DB
D3
00
1C
1C
1C
1C
1C
1C
1C
1C
1C
1C
1C
ENDCHAR
STARTCHAR Alpha
ENCODING 913
SWIDTH 591 0
DWIDTH 12 0
BBX 11 15 0 0
BITMAP
1F00
1F00
1F00
1B00
3B80
3B80
3B80
3B80
3180
7FC0
7FC0
71C0
71C0
E0E0
E0E0
ENDCHAR
STARTCHAR Beta
ENCODING 914
SWIDTH 591 0
DWIDTH 12 0
BBX 10 15 1 0
BITMAP
FF00
FF80
E1C0
E1C0
E1C0
E180
FF80
FF80
E1C0
E1C0
E1C0
E1C0
E1C0
FF80
FF00
ENDCHAR
STARTCHAR Gamma
ENCODING 915
SWIDTH 493 0
DWIDTH 10 0
BBX 8 15 1 0
BITMAP
FF
FF
E0
E0
E0
E0
E0
E0
E0
E0
E0
E0
E0
E0
E0
ENDCHAR
STARTCHAR Delta
ENCODING 916
SWIDTH 588 0
DWIDTH 12 0
BBX 11 15 0 0
BITMAP
0E00
0E00
1F00
1F00
1F00
1B00
3B80
3B80
3B80
71C0
71C0
71C0
F1E0
FFE0
FFE0
ENDCHAR
STARTCHAR Epsilon
ENCODING 917
SWIDTH 546 0
DWIDTH 11 0
BBX 9 15 1 0
BITMAP
FF80
FF80
E000
E000
E000
E000
FF80
FF80
E000
E000
E000
E000
E000
FF80
FF80
ENDCHAR
STARTCHAR Zeta
ENCODING 918
SWIDTH 500 0
DWIDTH 11 0
BBX 9 15 1 0
BITMAP
7F80
7F80
0380
0700
0700
0E00
1C00
1C00
3800
3800
7000
7000
E000
FF80
FF80
ENDCHAR
STARTCHAR Eta
ENCODING 919
SWIDTH 591 0
DWIDTH 12 0
BBX 10 15 1 0
BITMAP
E1C0
E1C0
E1C0
E1C0
E1C0
E1C0
FFC0
FFC0
E1C0
E1C0
E1C0
E1C0
E1C0
E1C0
E1C0
ENDCHAR
STARTCHAR Theta
ENCODING 920
SWIDTH 638 0
DWIDTH 13 0
BBX 11 15 1 0
BITMAP
1F00
3F80
71C0
71C0
E0E0
E0E0
EEE0
EEE0
E0E0
E0E0
E0E0
71C0
71C0
3F80
1F00
ENDCHAR
STARTCHAR Iota
ENCODING 921
SWIDTH 228 0
DWIDTH 5 0
BBX 3 15 1 0
BITMAP
E0
E0
E0
E0
E0
E0
E0
E0
E0
E0
E0
E0
E0
E0
E0
ENDCHAR
STARTCHAR Kappa
ENCODING 922
SWIDTH 591 0
DWIDTH 12 0
BBX 11 15 1 0
BITMAP
E0E0
E1C0
E380
E780
E700
EE00
FF00
FF00
F700
E380
E380
E1C0
E1C0
E0E0
E0E0
ENDCHAR
STARTCHAR Lambda
ENCODING 923
SWIDTH 546 0
DWIDTH 11 0
BBX 11 15 0 0
BITMAP
0E00
0E00
1F00
1F00
1F00
1B00
3B80
3B80
3B80
71C0
71C0
71C0
E0E0
E0E0
E0E0
ENDCHAR
STARTCHAR Mu
ENCODING 924
SWIDTH 683 0
DWIDTH 15 0
BBX 13 15 1 0
BITMAP
F078
F078
F078
F8F8
F8F8
E8B8
E8B8
EDB8
EDB8
EDB8
E538
E738
E738
E738
E738
ENDCHAR
STARTCHAR Nu
ENCODING 925
SWIDTH 591 0
DWIDTH 12 0
BBX 10 15 1 0
BITMAP
E1C0
F1C0
F1C0
F1C0
F9C0
F9C0
EDC0
EDC0
EDC0
E7C0
E7C0
E7C0
E3C0
E3C0
E1C0
ENDCHAR
STARTCHAR Xi
ENCODING 926
SWIDTH 527 0
DWIDTH 11 0
BBX 9 15 1 0
BITMAP
FF80
FF80
FF80
0000
0000
7F00
7F00
7F00
0000
0000
0000
0000
FF80
FF80
FF80
ENDCHAR
STARTCHAR Omicron
ENCODING 927
SWIDTH 638 0
DWIDTH 13 0
BBX 11 15 1 0
BITMAP
1F00
3F80
71C0
71C0
E0E0
E0E0
E0E0
E0E0
E0E0
E0E0
E0E0
71C0
71C0
3F80
1F00
ENDCHAR
STARTCHAR Pi
ENCODING 928
SWIDTH 591 0
DWIDTH 12 0
BBX 10 15 1 0
BITMAP
FFC0
FFC0
E1C0
E1C0
E1C0
E1C0
E1C0
E1C0
E1C0
E1C0
E1C0
E1C0
E1C0
E1C0
E1C0
ENDCHAR
STARTCHAR Rho
ENCODING 929
SWIDTH 546 0
DWIDTH 11 0
BBX 9 15 1 0
BITMAP
FE00
FF00
E380
E380
E380
E380
E380
FF00
FE00
E000
E000
E000
E000
E000
E000
ENDCHAR
STARTCHAR Sigma
ENCODING 931
SWIDTH 492 0
DWIDTH 10 0
BBX 8 15 1 0
BITMAP
FF
FF
E0
70
70
38
38
1C
38
38
70
60
E0
FF
FF
ENDCHAR
STARTCHAR Tau
ENCODING 932
SWIDTH 500 0
DWIDTH 11 0
BBX 11 15 0 0
BITMAP
FFE0
FFE0
0E00
0E00
0E00
0E00
0E00
0E00
0E00
0E00
0E00
0E00
0E00
0E00
0E00
ENDCHAR
STARTCHAR Upsilon
ENCODING 933
SWIDTH 546 0
DWIDTH 11 0
BBX 11 15 0 0
BITMAP
E0E0
71C0
71C0
3B80
3B80
1F00
1F00
0E00
0E00
0E00
0E00
0E00
0E00
0E00
0E00
ENDCHAR
STARTCHAR Phi
ENCODING 934
SWIDTH 670 0
DWIDTH 14 0
BBX 13 15 0 0
BITMAP
0700
1FC0
3FE0
7770
E738
E738
E738
E738
E738
E738
7770
3FE0
1FC0
0700
0700
ENDCHAR
STARTCHAR Chi
ENCODING 935
SWIDTH 546 0
DWIDTH 11 0
BBX 11 15 0 0
BITMAP
E0E0
71C0
71C0
3B80
3B80
1F00
1F00
0E00
1F00
1F00
3B80
3B80
71C0
71C0
E0E0
ENDCHAR
STARTCHAR Psi
ENCODING 936
SWIDTH 663 0
DWIDTH 14 0
BBX 12 15 1 0
BITMAP
E670
E670
E670
E670
E670
E670
E670
76E0
7FE0
1F80
0600
0600
0600
0600
0600
ENDCHAR
STARTCHAR Ohm
ENCODING 937
SWIDTH 657 0
DWIDTH 14 0
BBX 12 15 1 0
BITMAP
0F00
3FC0
79E0
70E0
E070
E070
E070
E070
E070
E070
6060
70E0
30C0
F9F0
F9F0
ENDCHAR
STARTCHAR Iotadieresis
ENCODING 938
SWIDTH 228 0
DWIDTH 5 0
BBX 6 18 -1 0
BITMAP
CC
CC
00
38
38
38
38
38
38
38
38
38
38
38
38
38
38
38
ENDCHAR
STARTCHAR Upsilondieresis
ENCODING 939
SWIDTH 546 0
DWIDTH 11 0
BBX 11 18 0 0
BITMAP
3300
3300
0000
E0E0
71C0
71C0
3B80
3B80
1F00
1F00
0E00
0E00
0E00
0E00
0E00
0E00
0E00
0E00
ENDCHAR
STARTCHAR alphatonos
ENCODING 940
SWIDTH 503 0
DWIDTH 11 0
BBX 9 14 1 0
BITMAP
1800
3000
0000
3B80
7F80
E700
E700
E700
E700
E700
E700
6700
7F80
3B80
ENDCHAR
STARTCHAR epsilontonos
ENCODING 941
SWIDTH 389 0
DWIDTH 8 0
BBX 6 14 1 0
BITMAP
18
30
00
78
FC
E8
E0
F8
38
E0
E0
E8
FC
78
ENDCHAR
STARTCHAR etatonos
ENCODING 942
SWIDTH 500 0
DWIDTH 11 0
BBX 9 18 1 -4
BITMAP
1800
3000
0000
EF00
FF80
F380
E380
E380
E380
E380
E380
E380
E380
E380
0380
0380
0380
0380
ENDCHAR
STARTCHAR iotatonos
ENCODING 943
SWIDTH 228 0
DWIDTH 5 0
BBX 4 14 0 0
BITMAP
60
C0
00
70
70
70
70
70
70
70
70
70
70
70
ENDCHAR
STARTCHAR upsilondieresistonos
ENCODING 944
SWIDTH 477 0
DWIDTH 10 0
BBX 8 15 1 0
BITMAP
18
DB
D3
00
E7
E7
E7
E7
E7
E7
E7
E7
E7
7E
3C
ENDCHAR
STARTCHAR alpha
ENCODING 945
SWIDTH 503 0
DWIDTH 11 0
BBX 9 11 1 0
BITMAP
3B80
7F80
E700
E700
E700
E700
E700
E700
6700
7F80
3B80
ENDCHAR
STARTCHAR beta
ENCODING 946
SWIDTH 500 0
DWIDTH 11 0
BBX 9 19 1 -4
BITMAP
3C00
7E00
E700
E700
E700
E600
EC00
EF00
E780
E380
E380
E380
F380
FF00
EE00
E000
E000
E000
E000
ENDCHAR
STARTCHAR gamma
ENCODING 947
SWIDTH 456 0
DWIDTH 10 0
BBX 8 15 1 -4
BITMAP
E7
E7
E7
66
66
7E
3C
3C
3C
18
18
18
18
18
18
ENDCHAR
STARTCHAR delta
ENCODING 948
SWIDTH 497 0
DWIDTH 11 0
BBX 9 15 1 0
BITMAP
7F80
7F80
7F80
3800
3C00
7F00
7700
E380
E380
E380
E380
E380
7700
7F00
3E00
ENDCHAR
STARTCHAR epsilon
ENCODING 949
SWIDTH 389 0
DWIDTH 8 0
BBX 6 11 1 0
BITMAP
78
FC
E8
E0
F8
38
E0
E0
E8
FC
78
ENDCHAR
STARTCHAR zeta
ENCODING 950
SWIDTH 376 0
DWIDTH 8 0
BBX 7 19 1 -4
BITMAP
7E
7E
06
0C
18
30
70
60
E0
E0
E0
E0
FC
7E
3E
0E
0E
3C
38
ENDCHAR
STARTCHAR eta
ENCODING 951
SWIDTH 500 0
DWIDTH 11 0
BBX 9 15 1 -4
BITMAP
EF00
FF80
F380
E380
E380
E380
E380
E380
E380
E380
E380
0380
0380
0380
0380
ENDCHAR
STARTCHAR theta
ENCODING 952
SWIDTH 442 0
DWIDTH 9 0
BBX 7 15 1 0
BITMAP
38
7C
7C
EE
C6
C6
FE
FE
C6
C6
C6
EE
7C
7C
38
ENDCHAR
STARTCHAR iota
ENCODING 953
SWIDTH 228 0
DWIDTH 5 0
BBX 3 11 1 0
BITMAP
E0
E0
E0
E0
E0
E0
E0
E0
E0
E0
E0
ENDCHAR
STARTCHAR kappa
ENCODING 954
SWIDTH 457 0
DWIDTH 10 0
BBX 9 11 1 0
BITMAP
E380
E700
EE00
FC00
F800
FC00
FC00
EE00
E700
E700
E380
ENDCHAR
STARTCHAR lambda
ENCODING 955
SWIDTH 456 0
DWIDTH 10 0
BBX 9 15 0 0
BITMAP
3C00
1C00
1E00
1E00
1E00
3E00
3E00
3F00
3700
7700
7700
7700
7780
E380
E380
ENDCHAR
STARTCHAR mu
ENCODING 956
SWIDTH 500 0
DWIDTH 11 0
BBX 9 15 1 -4
BITMAP
E380
E380
E380
E380
E380
E380
E380
E380
E780
FF80
FB80
E000
E000
E000
E000
ENDCHAR
STARTCHAR nu
ENCODING 957
SWIDTH 456 0
DWIDTH 10 0
BBX 9 11 0 0
BITMAP
E380
E380
7700
7700
7700
7700
7700
3600
3E00
3E00
3E00
ENDCHAR
STARTCHAR xi
ENCODING 958
SWIDTH 365 0
DWIDTH 8 0
BBX 7 19 1 -4
BITMAP
7C
FC
E0
E0
7C
1C
70
70
E0
E0
E0
E0
F8
7E
3E
0E
0E
3C
38
ENDCHAR
STARTCHAR omicron
ENCODING 959
SWIDTH 500 0
DWIDTH 11 0
BBX 9 11 1 0
BITMAP
3C00
7F00
7700
E380
E380
E380
E380
E380
7700
7F00
3C00
ENDCHAR
STARTCHAR pi
ENCODING 960
SWIDTH 627 0
DWIDTH 13 0
BBX 11 11 1 0
BITMAP
FFE0
FFE0
FFE0
71C0
71C0
71C0
71C0
71C0
71C0
71C0
71C0
ENDCHAR
STARTCHAR rho
ENCODING 961
SWIDTH 506 0
DWIDTH 11 0
BBX 9 15 1 -4
BITMAP
3C00
7F00
7700
E380
E380
E380
E380
E380
F700
FF00
EE00
E000
E000
E000
E000
ENDCHAR
STARTCHAR sigma1
ENCODING 962
SWIDTH 425 0
DWIDTH 9 0
BBX 8 15 1 -4
BITMAP
1E
3F
78
70
E0
E0
E0
F0
7C
7F
1F
07
07
1F
1E
ENDCHAR
STARTCHAR sigma
ENCODING 963
SWIDTH 561 0
DWIDTH 12 0
BBX 11 11 1 0
BITMAP
1FE0
7FE0
7700
E380
E380
E380
E380
E380
7700
7F00
1C00
ENDCHAR
STARTCHAR tau
ENCODING 964
SWIDTH 366 0
DWIDTH 8 0
BBX 6 11 1 0
BITMAP
FC
FC
FC
38
38
38
38
38
38
38
38
ENDCHAR
STARTCHAR upsilon
ENCODING 965
SWIDTH 477 0
DWIDTH 10 0
BBX 8 11 1 0
BITMAP
E7
E7
E7
E7
E7
E7
E7
E7
E7
7E
3C
ENDCHAR
STARTCHAR phi
ENCODING 966
SWIDTH 586 0
DWIDTH 12 0
BBX 10 15 1 -4
BITMAP
6700
6F80
CDC0
CCC0
CCC0
CCC0
CCC0
EDC0
7F80
7F80
1E00
0C00
0C00
0C00
0C00
ENDCHAR
STARTCHAR chi
ENCODING 967
SWIDTH 472 0
DWIDTH 10 0
BBX 10 15 0 -4
BITMAP
E1C0
E1C0
7380
7380
3F00
3F00
1E00
1E00
1E00
3F00
3F00
7380
7380
E1C0
E1C0
ENDCHAR
STARTCHAR psi
ENCODING 968
SWIDTH 618 0
DWIDTH 13 0
BBX 11 15 1 -4
BITMAP
CE60
CE60
CE60
CE60
CE60
CE60
CE60
CE60
EEE0
7FC0
3F80
0E00
0E00
0E00
0E00
ENDCHAR
STARTCHAR omega
ENCODING 969
SWIDTH 692 0
DWIDTH 15 0
BBX 13 11 1 0
BITMAP
7070
7070
E038
E738
E738
E738
E738
E738
E730
7DF0
38E0
ENDCHAR
STARTCHAR iotadieresis
ENCODING 970
SWIDTH 228 0
DWIDTH 5 0
BBX 6 14 -1 0
BITMAP
CC
CC
00
38
38
38
38
38
38
38
38
38
38
38
ENDCHAR
STARTCHAR upsilondieresis
ENCODING 971
SWIDTH 477 0
DWIDTH 10 0
BBX 8 14 1 0
BITMAP
66
66
00
E7
E7
E7
E7
E7
E7
E7
E7
E7
7E
3C
ENDCHAR
STARTCHAR omicrontonos
ENCODING 972
SWIDTH 500 0
DWIDTH 11 0
BBX 9 14 1 0
BITMAP
1800
3000
0000
3C00
7F00
7700
E380
E380
E380
E380
E380
7700
7F00
3C00
ENDCHAR
STARTCHAR upsilontonos
ENCODING 973
SWIDTH 477 0
DWIDTH 10 0
BBX 8 14 1 0
BITMAP
18
30
00
E7
E7
E7
E7
E7
E7
E7
E7
E7
7E
3C
ENDCHAR
STARTCHAR omegatonos
ENCODING 974
SWIDTH 692 0
DWIDTH 15 0
BBX 13 14 1 0
BITMAP
0600
0C00
0000
7070
7070
E038
E738
E738
E738
E738
E738
E730
7DF0
38E0
ENDCHAR
STARTCHAR afii10023
ENCODING 1025
SWIDTH 546 0
DWIDTH 11 0
BBX 9 18 1 0
BITMAP
6600
6600
0000
FF80
FF80
E000
E000
E000
E000
FF80
FF80
E000
E000
E000
E000
E000
FF80
FF80
ENDCHAR
STARTCHAR afii10051
ENCODING 1026
SWIDTH 726 0
DWIDTH 15 0
BBX 14 15 0 0
BITMAP
FFE0
FFE0
0E00
0E00
0E00
0FF0
0FF8
0E3C
0E1C
0E1C
0E1C
0E1C
0E1C
0E78
0E70
ENDCHAR
STARTCHAR afii10052
ENCODING 1027
SWIDTH 493 0
DWIDTH 10 0
BBX 8 18 1 0
BITMAP
0C
18
00
FF
FF
E0
E0
E0
E0
E0
E0
E0
E0
E0
E0
E0
E0
E0
ENDCHAR
STARTCHAR afii10053
ENCODING 1028
SWIDTH 583 0
DWIDTH 12 0
BBX 10 15 1 0
BITMAP
1E00
3F80
7380
61C0
E180
E000
FC00
FC00
E000
E180
E1C0
71C0
7380
3F80
1E00
ENDCHAR
STARTCHAR afii10054
ENCODING 1029
SWIDTH 546 0
DWIDTH 11 0
BBX 10 15 0 0
BITMAP
3E00
7F80
F380
E1C0
E1C0
F000
7E00
7F80
1FC0
03C0
E1C0
E1C0
73C0
7F80
1F00
ENDCHAR
STARTCHAR afii10055
ENCODING 1030
SWIDTH 228 0
DWIDTH 5 0
BBX 3 15 1 0
BITMAP
E0
E0
E0
E0
E0
E0
E0
E0
E0
E0
E0
E0
E0
E0
E0
ENDCHAR
STARTCHAR afii10056
ENCODING 1031
SWIDTH 228 0
DWIDTH 5 0
BBX 6 18 -1 0
BITMAP
CC
CC
00
38
38
38
38
38
38
38
38
38
38
38
38
38
38
38
ENDCHAR
STARTCHAR afii10057
ENCODING 1032
SWIDTH 456 0
DWIDTH 10 0
BBX 9 15 0 0
BITMAP
0380
0380
0380
0380
0380
0380
0380
0380
0380
0380
E380
E380
F380
7F00
3E00
ENDCHAR
STARTCHAR afii10058
ENCODING 1033
SWIDTH 896 0
DWIDTH 19 0
BBX 18 15 0 0
BITMAP
3FE000
3FE000
38E000
38E000
38E000
38E000
38FF00
38FF80
38E3C0
38E1C0
38E1C0
38E1C0
38E3C0
F0FF80
F0FF00
ENDCHAR
STARTCHAR afii10059
ENCODING 1034
SWIDTH 872 0
DWIDTH 18 0
BBX 16 15 1 0
BITMAP
E380
E380
E380
E380
E380
E380
FFFC
FFFE
E38F
E387
E387
E387
E38F
E3FE
E3FC
ENDCHAR
STARTCHAR afii10060
ENCODING 1035
SWIDTH 716 0
DWIDTH 15 0
BBX 14 15 0 0
BITMAP
FFE0
FFE0
0E00
0E00
0FF0
0FF8
0E3C
0E1C
0E1C
0E1C
0E1C
0E1C
0E1C
0E1C
0E1C
ENDCHAR
STARTCHAR afii10061
ENCODING 1036
SWIDTH 500 0
DWIDTH 11 0
BBX 10 18 1 0
BITMAP
0C00
1800
0000
E1C0
E3C0
E380
E700
E700
E600
FC00
FE00
EF00
E700
E700
E380
E380
E380
E1C0
ENDCHAR
STARTCHAR afii10062
ENCODING 1038
SWIDTH 509 0
DWIDTH 11 0
BBX 11 19 0 0
BITMAP
2100
3F00
1E00
0000
E0E0
E0E0
71C0
71C0
71C0
3B80
3B80
3B80
1F00
1F00
1F00
0E00
0E00
3C00
3800
ENDCHAR
STARTCHAR afii10145
ENCODING 1039
SWIDTH 589 0
DWIDTH 12 0
BBX 10 19 1 -4
BITMAP
E1C0
E1C0
E1C0
E1C0
E1C0
E1C0
E1C0
E1C0
E1C0
E1C0
E1C0
E1C0
E1C0
FFC0
FFC0
0E00
0E00
0E00
0E00
ENDCHAR
STARTCHAR afii10017
ENCODING 1040
SWIDTH 591 0
DWIDTH 12 0
BBX 11 15 0 0
BITMAP
1F00
1F00
1F00
1B00
3B80
3B80
3B80
3B80
3180
7FC0
7FC0
71C0
71C0
E0E0
E0E0
ENDCHAR
STARTCHAR afii10018
ENCODING 1041
SWIDTH 589 0
DWIDTH 12 0
BBX 10 15 1 0
BITMAP
FF80
FF80
E000
E000
E000
E000
FF00
FF80
E3C0
E1C0
E1C0
E1C0
E3C0
FF80
FF00
ENDCHAR
STARTCHAR afii10019
ENCODING 1042
SWIDTH 591 0
DWIDTH 12 0
BBX 10 15 1 0
BITMAP
FF00
FF80
E1C0
E1C0
E1C0
E180
FF80
FF80
E1C0
E1C0
E1C0
E1C0
E1C0
FF80
FF00
ENDCHAR
STARTCHAR afii10020
ENCODING 1043
SWIDTH 493 0
DWIDTH 10 0
BBX 8 15 1 0
BITMAP
FF
FF
E0
E0
E0
E0
E0
E0
E0
E0
E0
E0
E0
E0
E0
ENDCHAR
STARTCHAR afii10021
ENCODING 1044
SWIDTH 583 0
DWIDTH 12 0
BBX 12 18 0 -3
BITMAP
1FE0
1FE0
1CE0
1CE0
1CE0
1CE0
1CE0
1CE0
1CE0
1CE0
1CE0
38E0
38E0
FFF0
FFF0
E070
E070
E070
ENDCHAR
STARTCHAR afii10022
ENCODING 1045
SWIDTH 546 0
DWIDTH 11 0
BBX 9 15 1 0
BITMAP
FF80
FF80
E000
E000
E000
E000
FF80
FF80
E000
E000
E000
E000
E000
FF80
FF80
ENDCHAR
STARTCHAR afii10024
ENCODING 1046
SWIDTH 741 0
DWIDTH 16 0
BBX 16 15 0 0
BITMAP
F1C7
F9CF
39CE
1DCE
1DDC
1DDC
0FF8
0FF8
1DD8
39DC
39DC
71CE
71CE
71CE
E1C7
ENDCHAR
STARTCHAR afii10025
ENCODING 1047
SWIDTH 513 0
DWIDTH 11 0
BBX 10 15 0 0
BITMAP
3F00
7F80
F3C0
61C0
01C0
0380
0E00
0F80
03C0
01C0
61C0
E1C0
73C0
7F80
3F00
ENDCHAR
STARTCHAR afii10026
ENCODING 1048
SWIDTH 589 0
DWIDTH 12 0
BBX 10 15 1 0
BITMAP
E1C0
E3C0
E3C0
E3C0
E7C0
E7C0
EDC0
EDC0
EDC0
F9C0
F9C0
F1C0
F1C0
F1C0
E1C0
ENDCHAR
STARTCHAR afii10027
ENCODING 1049
SWIDTH 589 0
DWIDTH 12 0
BBX 10 19 1 0
BITMAP
2100
3F00
1E00
0000
E1C0
E3C0
E3C0
E3C0
E7C0
E7C0
EDC0
EDC0
EDC0
F9C0
F9C0
F1C0
F1C0
F1C0
E1C0
ENDCHAR
STARTCHAR afii10028
ENCODING 1050
SWIDTH 500 0
DWIDTH 11 0
BBX 10 15 1 0
BITMAP
E1C0
E3C0
E380
E700
E700
E600
FC00
FE00
EF00
E700
E700
E380
E380
E380
E1C0
ENDCHAR
STARTCHAR afii10029
ENCODING 1051
SWIDTH 576 0
DWIDTH 12 0
BBX 11 15 0 0
BITMAP
3FE0
3FE0
38E0
38E0
38E0
38E0
38E0
38E0
38E0
38E0
38E0
38E0
38E0
F8E0
F0E0
ENDCHAR
STARTCHAR afii10030
ENCODING 1052
SWIDTH 683 0
DWIDTH 15 0
BBX 13 15 1 0
BITMAP
F078
F078
F078
F8F8
F8F8
E8B8
E8B8
EDB8
EDB8
EDB8
E538
E738
E738
E738
E738
ENDCHAR
STARTCHAR afii10031
ENCODING 1053
SWIDTH 591 0
DWIDTH 12 0
BBX 10 15 1 0
BITMAP
E1C0
E1C0
E1C0
E1C0
E1C0
E1C0
FFC0
FFC0
E1C0
E1C0
E1C0
E1C0
E1C0
E1C0
E1C0
ENDCHAR
STARTCHAR afii10032
ENCODING 1054
SWIDTH 638 0
DWIDTH 13 0
BBX 11 15 1 0
BITMAP
1F00
3F80
71C0
71C0
E0E0
E0E0
E0E0
E0E0
E0E0
E0E0
E0E0
71C0
71C0
3F80
1F00
ENDCHAR
STARTCHAR afii10033
ENCODING 1055
SWIDTH 591 0
DWIDTH 12 0
BBX 10 15 1 0
BITMAP
FFC0
FFC0
E1C0
E1C0
E1C0
E1C0
E1C0
E1C0
E1C0
E1C0
E1C0
E1C0
E1C0
E1C0
E1C0
ENDCHAR
STARTCHAR afii10034
ENCODING 1056
SWIDTH 546 0
DWIDTH 11 0
BBX 9 15 1 0
BITMAP
FE00
FF00
E380
E380
E380
E380
E380
FF00
FE00
E000
E000
E000
E000
E000
E000
ENDCHAR
STARTCHAR afii10035
ENCODING 1057
SWIDTH 591 0
DWIDTH 12 0
BBX 11 15 1 0
BITMAP
1F00
3FC0
71C0
70E0
E0C0
E000
E000
E000
E000
E000
E0C0
70E0
71C0
3FC0
1F00
ENDCHAR
STARTCHAR afii10036
ENCODING 1058
SWIDTH 500 0
DWIDTH 11 0
BBX 11 15 0 0
BITMAP
FFE0
FFE0
0E00
0E00
0E00
0E00
0E00
0E00
0E00
0E00
0E00
0E00
0E00
0E00
0E00
ENDCHAR
STARTCHAR afii10037
ENCODING 1059
SWIDTH 509 0
DWIDTH 11 0
BBX 11 15 0 0
BITMAP
E0E0
E0E0
71C0
71C0
71C0
3B80
3B80
3B80
1F00
1F00
1F00
0E00
0E00
3C00
3800
ENDCHAR
STARTCHAR afii10038
ENCODING 1060
SWIDTH 699 0
DWIDTH 15 0
BBX 13 15 1 0
BITMAP
0700
1FC0
7FF0
7770
E738
E738
E738
E738
E738
E738
7770
7FF0
1FC0
0700
0700
ENDCHAR
STARTCHAR afii10039
ENCODING 1061
SWIDTH 546 0
DWIDTH 11 0
BBX 11 15 0 0
BITMAP
E0E0
71C0
71C0
3B80
3B80
1F00
1F00
0E00
1F00
1F00
3B80
3B80
71C0
71C0
E0E0
ENDCHAR
STARTCHAR afii10040
ENCODING 1062
SWIDTH 599 0
DWIDTH 13 0
BBX 12 18 1 -3
BITMAP
E0E0
E0E0
E0E0
E0E0
E0E0
E0E0
E0E0
E0E0
E0E0
E0E0
E0E0
E0E0
E0E0
FFF0
FFF0
0070
0070
0070
ENDCHAR
STARTCHAR afii10041
ENCODING 1063
SWIDTH 576 0
DWIDTH 12 0
BBX 10 15 1 0
BITMAP
E1C0
E1C0
E1C0
E1C0
E1C0
E1C0
E1C0
F3C0
7FC0
3DC0
01C0
01C0
01C0
01C0
01C0
ENDCHAR
STARTCHAR afii10042
ENCODING 1064
SWIDTH 824 0
DWIDTH 17 0
BBX 15 15 1 0
BITMAP
E38E
E38E
E38E
E38E
E38E
E38E
E38E
E38E
E38E
E38E
E38E
E38E
E38E
FFFE
FFFE
ENDCHAR
STARTCHAR afii10043
ENCODING 1065
SWIDTH 835 0
DWIDTH 18 0
BBX 16 18 1 -3
BITMAP
E38E
E38E
E38E
E38E
E38E
E38E
E38E
E38E
E38E
E38E
E38E
E38E
E38F
FFFF
FFFF
0007
0007
0007
ENDCHAR
STARTCHAR afii10044
ENCODING 1066
SWIDTH 712 0
DWIDTH 15 0
BBX 14 15 0 0
BITMAP
FE00
FE00
0E00
0E00
0E00
0E00
0FF0
0FF8
0E3C
0E1C
0E1C
0E1C
0E3C
0FF8
0FF0
ENDCHAR
STARTCHAR afii10045
ENCODING 1067
SWIDTH 817 0
DWIDTH 17 0
BBX 15 15 1 0
BITMAP
E00E
E00E
E00E
E00E
E00E
E00E
FF0E
FF8E
E3CE
E1CE
E1CE
E1CE
E3CE
FF8E
FF0E
ENDCHAR
STARTCHAR afii10046
ENCODING 1068
SWIDTH 589 0
DWIDTH 12 0
BBX 10 15 1 0
BITMAP
E000
E000
E000
E000
E000
E000
FF00
FF80
E3C0
E1C0
E1C0
E1C0
E3C0
FF80
FF00
ENDCHAR
STARTCHAR afii10047
ENCODING 1069
SWIDTH 583 0
DWIDTH 12 0
BBX 10 15 1 0
BITMAP
3E00
7F00
7380
E180
61C0
01C0
0FC0
0FC0
01C0
61C0
E1C0
E380
7380
7F00
1E00
ENDCHAR
STARTCHAR afii10048
ENCODING 1070
SWIDTH 845 0
DWIDTH 18 0
BBX 16 15 1 0
BITMAP
E0F8
E1FC
E38E
E38E
E707
E707
FF07
FF07
E707
E707
E707
E38E
E38E
E1FC
E0F8
ENDCHAR
STARTCHAR afii10049
ENCODING 1071
SWIDTH 591 0
DWIDTH 12 0
BBX 11 15 0 0
BITMAP
1FE0
3FE0
70E0
70E0
70E0
70E0
70E0
3FE0
1FE0
1CE0
38E0
38E0
70E0
70E0
E0E0
ENDCHAR
STARTCHAR afii10065
ENCODING 1072
SWIDTH 456 0
DWIDTH 10 0
BBX 8 11 1 0
BITMAP
3E
7F
E7
07
0F
7F
F7
E7
E7
FF
77
ENDCHAR
STARTCHAR afii10066
ENCODING 1073
SWIDTH 506 0
DWIDTH 11 0
BBX 9 15 1 0
BITMAP
1F80
7F00
6000
C000
DE00
FF00
F700
E380
E380
E380
E380
E380
7700
7F00
3C00
ENDCHAR
STARTCHAR afii10067
ENCODING 1074
SWIDTH 503 0
DWIDTH 11 0
BBX 9 11 1 0
BITMAP
FF00
FF80
E380
E380
FE00
FF00
E380
E380
E380
FF80
FF00
ENDCHAR
STARTCHAR afii10068
ENCODING 1075
SWIDTH 341 0
DWIDTH 7 0
BBX 6 11 1 0
BITMAP
FC
FC
E0
E0
E0
E0
E0
E0
E0
E0
E0
ENDCHAR
STARTCHAR afii10069
ENCODING 1076
SWIDTH 520 0
DWIDTH 11 0
BBX 11 14 0 -3
BITMAP
1FC0
1FC0
1DC0
1DC0
1DC0
3DC0
39C0
39C0
71C0
FFE0
FFE0
E0E0
E0E0
E0E0
ENDCHAR
STARTCHAR afii10070
ENCODING 1077
SWIDTH 456 0
DWIDTH 10 0
BBX 8 11 1 0
BITMAP
3C
7E
66
E7
FF
FF
E0
E7
67
7E
3C
ENDCHAR
STARTCHAR afii10072
ENCODING 1078
SWIDTH 581 0
DWIDTH 12 0
BBX 12 11 0 0
BITMAP
E670
E670
36C0
36C0
3FC0
3FC0
36C0
6660
6660
6660
C630
ENDCHAR
STARTCHAR afii10073
ENCODING 1079
SWIDTH 408 0
DWIDTH 9 0
BBX 8 11 0 0
BITMAP
3E
7F
E7
07
1C
1E
07
E7
E7
7E
3C
ENDCHAR
STARTCHAR afii10074
ENCODING 1080
SWIDTH 503 0
DWIDTH 11 0
BBX 9 11 1 0
BITMAP
E380
E780
E780
EF80
EF80
EB80
FB80
FB80
F380
F380
E380
ENDCHAR
STARTCHAR afii10075
ENCODING 1081
SWIDTH 500 0
DWIDTH 11 0
BBX 9 15 1 0
BITMAP
4200
7E00
3C00
0000
E380
E780
E780
EF80
EF80
EB80
FB80
FB80
F380
F380
E380
ENDCHAR
STARTCHAR afii10076
ENCODING 1082
SWIDTH 410 0
DWIDTH 9 0
BBX 8 11 1 0
BITMAP
E3
E7
E7
EE
FE
F8
EE
EE
EE
E7
E7
ENDCHAR
STARTCHAR afii10077
ENCODING 1083
SWIDTH 520 0
DWIDTH 11 0
BBX 10 11 0 0
BITMAP
3FC0
3FC0
39C0
39C0
39C0
39C0
39C0
39C0
39C0
F9C0
F1C0
ENDCHAR
STARTCHAR afii10078
ENCODING 1084
SWIDTH 606 0
DWIDTH 13 0
BBX 11 11 1 0
BITMAP
E0E0
E0E0
F1E0
F1E0
F1E0
DB60
DB60
DB60
CE60
CE60
CE60
ENDCHAR
STARTCHAR afii10079
ENCODING 1085
SWIDTH 495 0
DWIDTH 10 0
BBX 8 11 1 0
BITMAP
E7
E7
E7
E7
FF
FF
E7
E7
E7
E7
E7
ENDCHAR
STARTCHAR afii10080
ENCODING 1086
SWIDTH 500 0
DWIDTH 11 0
BBX 9 11 1 0
BITMAP
3C00
7F00
7700
E380
E380
E380
E380
E380
7700
7F00
3C00
ENDCHAR
STARTCHAR afii10081
ENCODING 1087
SWIDTH 495 0
DWIDTH 10 0
BBX 8 11 1 0
BITMAP
FF
FF
E7
E7
E7
E7
E7
E7
E7
E7
E7
ENDCHAR
STARTCHAR afii10082
ENCODING 1088
SWIDTH 500 0
DWIDTH 11 0
BBX 9 15 1 -4
BITMAP
EE00
FF00
F780
E380
E380
E380
E380
E380
F780
FF00
EE00
E000
E000
E000
E000
ENDCHAR
STARTCHAR afii10083
ENCODING 1089
SWIDTH 456 0
DWIDTH 10 0
BBX 8 11 1 0
BITMAP
3C
7E
67
E7
E0
E0
E0
E7
67
7E
3C
ENDCHAR
STARTCHAR afii10084
ENCODING 1090
SWIDTH 401 0
DWIDTH 8 0
BBX 9 11 0 0
BITMAP
FF80
FF80
1C00
1C00
1C00
1C00
1C00
1C00
1C00
1C00
1C00
ENDCHAR
STARTCHAR afii10085
ENCODING 1091
SWIDTH 456 0
DWIDTH 10 0
BBX 10 15 0 -4
BITMAP
E1C0
E1C0
7380
7380
7380
3300
3300
3F00
1E00
1E00
1E00
0C00
1C00
7800
7000
ENDCHAR
STARTCHAR afii10086
ENCODING 1092
SWIDTH 716 0
DWIDTH 15 0
BBX 13 19 1 -4
BITMAP
0700
0700
0700
0700
3760
7FF0
E738
E738
E738
E738
E738
E738
E738
7FF0
3760
0700
0700
0700
0700
ENDCHAR
STARTCHAR afii10087
ENCODING 1093
SWIDTH 456 0
DWIDTH 10 0
BBX 10 11 0 0
BITMAP
E1C0
7380
3300
3F00
1E00
1E00
1E00
3F00
3300
7380
E1C0
ENDCHAR
STARTCHAR afii10088
ENCODING 1094
SWIDTH 503 0
DWIDTH 11 0
BBX 9 14 1 -3
BITMAP
E700
E700
E700
E700
E700
E700
E700
E700
E700
FF80
FF80
0380
0380
0380
ENDCHAR
STARTCHAR afii10089
ENCODING 1095
SWIDTH 476 0
DWIDTH 10 0
BBX 8 11 1 0
BITMAP
E7
E7
E7
E7
E7
7F
7F
07
07
07
07
ENDCHAR
STARTCHAR afii10090
ENCODING 1096
SWIDTH 683 0
DWIDTH 14 0
BBX 13 11 1 0
BITMAP
E738
E738
E738
E738
E738
E738
E738
E738
E738
FFF8
FFF8
ENDCHAR
STARTCHAR afii10091
ENCODING 1097
SWIDTH 691 0
DWIDTH 15 0
BBX 15 14 1 -3
BITMAP
E738
E738
E738
E738
E738
E738
E738
E738
E738
FFFE
FFFE
000E
000E
000E
ENDCHAR
STARTCHAR afii10092
ENCODING 1098
SWIDTH 598 0
DWIDTH 13 0
BBX 12 11 0 0
BITMAP
FC00
FC00
1C00
1C00
1FE0
1FF0
1C70
1C70
1C70
1FF0
1FE0
ENDCHAR
STARTCHAR afii10093
ENCODING 1099
SWIDTH 731 0
DWIDTH 15 0
BBX 13 11 1 0
BITMAP
E038
E038
E038
E038
E038
FF38
FFB8
E3B8
E3B8
FFB8
FF38
ENDCHAR
STARTCHAR afii10094
ENCODING 1100
SWIDTH 503 0
DWIDTH 11 0
BBX 9 11 1 0
BITMAP
E000
E000
E000
E000
E000
FF00
FF80
E380
E380
FF80
FF00
ENDCHAR
STARTCHAR afii10095
ENCODING 1101
SWIDTH 453 0
DWIDTH 10 0
BBX 8 11 1 0
BITMAP
3C
7E
E7
E7
0F
0F
07
E7
E7
7E
3C
ENDCHAR
STARTCHAR afii10096
ENCODING 1102
SWIDTH 700 0
DWIDTH 15 0
BBX 13 11 1 0
BITMAP
E3E0
E7F0
EF70
EE38
FE38
FE38
EE38
EE38
E770
E7F0
E3E0
ENDCHAR
STARTCHAR afii10097
ENCODING 1103
SWIDTH 478 0
DWIDTH 10 0
BBX 9 11 0 0
BITMAP
3F80
7F80
7380
7380
7380
3F80
1F80
3B80
3B80
7380
E380
ENDCHAR
STARTCHAR afii10071
ENCODING 1105
SWIDTH 456 0
DWIDTH 10 0
BBX 8 14 1 0
BITMAP
66
66
00
3C
7E
66
E7
FF
FF
E0
E7
67
7E
3C
ENDCHAR
STARTCHAR afii10099
ENCODING 1106
SWIDTH 500 0
DWIDTH 11 0
BBX 10 19 0 -4
BITMAP
7000
FE00
7000
7000
7780
7FC0
79C0
71C0
71C0
71C0
71C0
71C0
71C0
71C0
71C0
01C0
01C0
07C0
0780
ENDCHAR
STARTCHAR afii10100
ENCODING 1107
SWIDTH 341 0
DWIDTH 7 0
BBX 6 14 1 0
BITMAP
30
60
00
FC
FC
E0
E0
E0
E0
E0
E0
E0
E0
E0
ENDCHAR
STARTCHAR afii10101
ENCODING 1108
SWIDTH 453 0
DWIDTH 10 0
BBX 8 11 1 0
BITMAP
3C
7E
67
E7
F8
F8
E0
E7
E7
7E
3C
ENDCHAR
STARTCHAR afii10102
ENCODING 1109
SWIDTH 456 0
DWIDTH 10 0
BBX 8 11 1 0
BITMAP
3C
7F
E7
E0
F8
7E
1F
07
E7
7E
3C
ENDCHAR
STARTCHAR afii10103
ENCODING 1110
SWIDTH 228 0
DWIDTH 5 0
BBX 3 15 1 0
BITMAP
E0
E0
E0
00
E0
E0
E0
E0
E0
E0
E0
E0
E0
E0
E0
ENDCHAR
STARTCHAR afii10104
ENCODING 1111
SWIDTH 228 0
DWIDTH 5 0
BBX 6 14 0 0
BITMAP
CC
CC
00
70
70
70
70
70
70
70
70
70
70
70
ENDCHAR
STARTCHAR afii10105
ENCODING 1112
SWIDTH 228 0
DWIDTH 5 0
BBX 5 19 -1 -4
BITMAP
38
38
38
00
38
38
38
38
38
38
38
38
38
38
38
38
38
F8
F0
ENDCHAR
STARTCHAR afii10106
ENCODING 1113
SWIDTH 794 0
DWIDTH 17 0
BBX 16 11 0 0
BITMAP
3FC0
3FC0
39C0
39C0
39FE
39FF
39C7
39C7
39C7
F9FF
F1FE
ENDCHAR
STARTCHAR afii10107
ENCODING 1114
SWIDTH 743 0
DWIDTH 16 0
BBX 14 11 1 0
BITMAP
E700
E700
E700
E700
FFF8
FFFC
E71C
E71C
E71C
E7FC
E7F8
ENDCHAR
STARTCHAR afii10108
ENCODING 1115
SWIDTH 500 0
DWIDTH 11 0
BBX 10 15 0 0
BITMAP
7000
FE00
7000
7000
7780
7FC0
79C0
71C0
71C0
71C0
71C0
71C0
71C0
71C0
71C0
ENDCHAR
STARTCHAR afii10109
ENCODING 1116
SWIDTH 410 0
DWIDTH 9 0
BBX 8 14 0 0
BITMAP
18
30
00
E3
E7
E7
EE
FE
F8
EE
EE
EE
E7
E7
ENDCHAR
STARTCHAR afii10110
ENCODING 1118
SWIDTH 456 0
DWIDTH 10 0
BBX 10 19 0 -4
BITMAP
2100
3F00
1E00
0000
E1C0
E1C0
7380
7380
7380
3300
3300
3F00
1E00
1E00
1E00
0C00
1C00
7800
7000
ENDCHAR
STARTCHAR afii10193
ENCODING 1119
SWIDTH 495 0
DWIDTH 10 0
BBX 8 15 1 -4
BITMAP
E7
E7
E7
E7
E7
E7
E7
E7
E7
FF
FF
1C
1C
1C
1C
ENDCHAR
STARTCHAR afii10050
ENCODING 1168
SWIDTH 453 0
DWIDTH 10 0
BBX 9 18 1 0
BITMAP
0380
0380
0380
FF80
FF80
E000
E000
E000
E000
E000
E000
E000
E000
E000
E000
E000
E000
E000
ENDCHAR
STARTCHAR afii10098
ENCODING 1169
SWIDTH 341 0
DWIDTH 7 0
BBX 6 14 1 0
BITMAP
1C
1C
1C
FC
FC
E0
E0
E0
E0
E0
E0
E0
E0
E0
ENDCHAR
STARTCHAR Wgrave
ENCODING 7808
SWIDTH 773 0
DWIDTH 16 0
BBX 16 18 0 0
BITMAP
0180
00C0
0000
E187
E1C7
E3C7
E3C7
73CE
73CE
766E
766E
766E
766E
766E
3E7C
3C3C
3C3C
3C3C
ENDCHAR
STARTCHAR wgrave
ENCODING 7809
SWIDTH 638 0
DWIDTH 13 0
BBX 13 14 0 0
BITMAP
0600
0300
0000
E738
E738
7770
7770
7570
7570
3560
3DE0
3DE0
3DE0
3DE0
ENDCHAR
STARTCHAR Wacute
ENCODING 7810
SWIDTH 773 0
DWIDTH 16 0
BBX 16 18 0 0
BITMAP
0180
0300
0000
E187
E1C7
E3C7
E3C7
73CE
73CE
766E
766E
766E
766E
766E
3E7C
3C3C
3C3C
3C3C
ENDCHAR
STARTCHAR wacute
ENCODING 7811
SWIDTH 638 0
DWIDTH 13 0
BBX 13 14 0 0
BITMAP
0300
0600
0000
E738
E738
7770
7770
7570
7570
3560
3DE0
3DE0
3DE0
3DE0
ENDCHAR
STARTCHAR Wdieresis
ENCODING 7812
SWIDTH 773 0
DWIDTH 16 0
BBX 16 18 0 0
BITMAP
0660
0660
0000
E187
E1C7
E3C7
E3C7
73CE
73CE
766E
766E
766E
766E
766E
3E7C
3C3C
3C3C
3C3C
ENDCHAR
STARTCHAR wdieresis
ENCODING 7813
SWIDTH 638 0
DWIDTH 13 0
BBX 13 14 0 0
BITMAP
1980
1980
0000
E738
E738
7770
7770
7570
7570
3560
3DE0
3DE0
3DE0
3DE0
ENDCHAR
STARTCHAR Ygrave
ENCODING 7922
SWIDTH 546 0
DWIDTH 11 0
BBX 11 18 0 0
BITMAP
0600
0300
0000
E0E0
71C0
71C0
3B80
3B80
1F00
1F00
0E00
0E00
0E00
0E00
0E00
0E00
0E00
0E00
ENDCHAR
STARTCHAR ygrave
ENCODING 7923
SWIDTH 456 0
DWIDTH 10 0
BBX 10 18 0 -4
BITMAP
0C00
0600
0000
E1C0
E1C0
7380
7380
7380
3300
3300
3F00
1E00
1E00
1E00
0C00
1C00
7800
7000
ENDCHAR
STARTCHAR endash
ENCODING 8211
SWIDTH 456 0
DWIDTH 10 0
BBX 10 2 0 4
BITMAP
FFC0
FFC0
ENDCHAR
STARTCHAR emdash
ENCODING 8212
SWIDTH 819 0
DWIDTH 17 0
BBX 17 2 0 4
BITMAP
FFFF80
FFFF80
ENDCHAR
STARTCHAR afii00208
ENCODING 8213
SWIDTH 819 0
DWIDTH 17 0
BBX 13 2 2 4
BITMAP
FFF8
FFF8
ENDCHAR
STARTCHAR underscoredbl
ENCODING 8215
SWIDTH 500 0
DWIDTH 11 0
BBX 11 3 0 -5
BITMAP
FFE0
0000
FFE0
ENDCHAR
STARTCHAR quoteleft
ENCODING 8216
SWIDTH 228 0
DWIDTH 5 0
BBX 3 5 1 10
BITMAP
60
E0
C0
E0
E0
ENDCHAR
STARTCHAR quoteright
ENCODING 8217
SWIDTH 228 0
DWIDTH 5 0
BBX 3 5 1 10
BITMAP
E0
E0
60
E0
C0
ENDCHAR
STARTCHAR quotesinglbase
ENCODING 8218
SWIDTH 228 0
DWIDTH 5 0
BBX 3 5 1 -3
BITMAP
E0
E0
60
E0
C0
ENDCHAR
STARTCHAR quotereversed
ENCODING 8219
SWIDTH 228 0
DWIDTH 5 0
BBX 3 5 1 10
BITMAP
E0
E0
C0
C0
60
ENDCHAR
STARTCHAR quotedblleft
ENCODING 8220
SWIDTH 410 0
DWIDTH 9 0
BBX 7 5 1 10
BITMAP
66
EE
CC
EE
EE
ENDCHAR
STARTCHAR quotedblright
ENCODING 8221
SWIDTH 410 0
DWIDTH 9 0
BBX 7 5 1 10
BITMAP
EE
EE
66
EE
CC
ENDCHAR
STARTCHAR quotedblbase
ENCODING 8222
SWIDTH 410 0
DWIDTH 9 0
BBX 7 5 1 -3
BITMAP
EE
EE
66
EE
CC
ENDCHAR
STARTCHAR dagger
ENCODING 8224
SWIDTH 456 0
DWIDTH 10 0
BBX 9 19 0 -4
BITMAP
1C00
1C00
1C00
1C00
FF80
FF80
1C00
1C00
1C00
1C00
1C00
1C00
1C00
1C00
1C00
1C00
1C00
1C00
1C00
ENDCHAR
STARTCHAR daggerdbl
ENCODING 8225
SWIDTH 456 0
DWIDTH 10 0
BBX 9 19 0 -4
BITMAP
1C00
1C00
1C00
1C00
FF80
FF80
1C00
1C00
1C00
1C00
1C00
1C00
1C00
FF80
FF80
1C00
1C00
1C00
1C00
ENDCHAR
STARTCHAR bullet
ENCODING 8226
SWIDTH 287 0
DWIDTH 6 0
BBX 5 6 0 4
BITMAP
70
F8
F8
F8
F8
70
ENDCHAR
STARTCHAR ellipsis
ENCODING 8230
SWIDTH 819 0
DWIDTH 17 0
BBX 15 3 2 0
BITMAP
E38E
E38E
E38E
ENDCHAR
STARTCHAR perthousand
ENCODING 8240
SWIDTH 819 0
DWIDTH 17 0
BBX 16 15 0 0
BITMAP
6180
F380
9300
9300
9700
9600
F600
6EC6
0DEF
0D29
1D29
1929
1929
39EF
30C6
ENDCHAR
STARTCHAR minute
ENCODING 8242
SWIDTH 194 0
DWIDTH 4 0
BBX 3 5 0 10
BITMAP
E0
E0
E0
E0
E0
ENDCHAR
STARTCHAR second
ENCODING 8243
SWIDTH 389 0
DWIDTH 8 0
BBX 7 5 0 10
BITMAP
EE
EE
EE
EE
EE
ENDCHAR
STARTCHAR guilsinglleft
ENCODING 8249
SWIDTH 272 0
DWIDTH 6 0
BBX 5 9 1 1
BITMAP
18
30
70
60
E0
60
70
30
18
ENDCHAR
STARTCHAR guilsinglright
ENCODING 8250
SWIDTH 272 0
DWIDTH 6 0
BBX 5 9 1 1
BITMAP
C0
60
70
30
38
30
70
60
C0
ENDCHAR
STARTCHAR exclamdbl
ENCODING 8252
SWIDTH 545 0
DWIDTH 11 0
BBX 9 15 1 0
BITMAP
E380
E380
E380
E380
E380
E380
E380
E380
E380
E380
4100
4100
0000
E380
E380
ENDCHAR
STARTCHAR radicalex
ENCODING 8254
SWIDTH 272 0
DWIDTH 6 0
BBX 6 2 0 13
BITMAP
FC
FC
ENDCHAR
STARTCHAR fraction
ENCODING 8260
SWIDTH 137 0
DWIDTH 3 0
BBX 9 15 -3 0
BITMAP
0080
0100
0100
0200
0200
0400
0400
0800
1000
1000
2000
2000
4000
4000
8000
ENDCHAR
STARTCHAR nsuperior
ENCODING 8319
SWIDTH 325 0
DWIDTH 7 0
BBX 5 7 1 8
BITMAP
F8
F8
D8
D8
D8
D8
D8
ENDCHAR
STARTCHAR franc
ENCODING 8355
SWIDTH 503 0
DWIDTH 11 0
BBX 10 15 0 0
BITMAP
7FC0
7FC0
7000
7000
7000
7000
7F80
7F80
7000
7000
7000
FE00
FE00
7000
7000
ENDCHAR
STARTCHAR afii08941
ENCODING 8356
SWIDTH 456 0
DWIDTH 10 0
BBX 10 15 0 0
BITMAP
1E00
3F00
7380
7380
7000
FE00
FE00
3800
FE00
FE00
3800
7000
FC80
FFC0
47C0
ENDCHAR
STARTCHAR peseta
ENCODING 8359
SWIDTH 960 0
DWIDTH 20 0
BBX 18 15 1 0
BITMAP
F80000
FCE000
EEE000
EEE000
EFFF80
EFFFC0
EEEFC0
EEEE00
FCEF80
F8E7C0
E0E1C0
E0EFC0
E0EFC0
E0FF80
E07700
ENDCHAR
STARTCHAR Euro
ENCODING 8364
SWIDTH 456 0
DWIDTH 10 0
BBX 9 15 0 0
BITMAP
0F00
1F80
3880
3800
3000
7000
FF00
7000
FE00
7000
7000
3800
3C80
1F80
0F00
ENDCHAR
STARTCHAR afii61248
ENCODING 8453
SWIDTH 789 0
DWIDTH 17 0
BBX 15 15 1 0
BITMAP
7830
7C30
CC60
C060
C0C0
CCC0
7D80
79BC
033C
0366
0666
0666
0C66
0C3C
183C
ENDCHAR
STARTCHAR afii61289
ENCODING 8467
SWIDTH 490 0
DWIDTH 10 0
BBX 10 15 0 0
BITMAP
0780
1FC0
19C0
39C0
3BC0
3B80
3F00
3C00
7800
F800
B800
3800
1C40
1FC0
0F80
ENDCHAR
STARTCHAR afii61352
ENCODING 8470
SWIDTH 914 0
DWIDTH 19 0
BBX 17 15 1 0
BITMAP
E1C000
F1C000
F1C000
F1CF00
F9CF00
F9DD80
FDDD80
EDDD80
EDDD80
E7CF00
E7CF00
E3C000
E3DF80
E3DF80
E1C000
ENDCHAR
STARTCHAR trademark
ENCODING 8482
SWIDTH 819 0
DWIDTH 17 0
BBX 13 8 2 7
BITMAP
FB18
2318
23B8
22A8
22A8
22E8
22E8
2248
ENDCHAR
STARTCHAR glyph526
ENCODING 8486
SWIDTH 768 0
DWIDTH 16 0
BBX 15 15 0 0
BITMAP
0FE0
1FF8
3838
701C
F00E
E00E
E00E
E00E
E00E
E00E
701C
701C
3830
FC7E
FC7E
ENDCHAR
STARTCHAR estimated
ENCODING 8494
SWIDTH 600 0
DWIDTH 13 0
BBX 11 11 1 0
BITMAP
1F00
3180
60C0
E0E0
E0E0
FFE0
E000
E000
6040
3080
1F00
ENDCHAR
STARTCHAR oneeighth
ENCODING 8539
SWIDTH 684 0
DWIDTH 14 0
BBX 13 15 0 0
BITMAP
3010
F020
B020
3040
3040
3080
3080
3170
02D8
02D8
0470
04D8
08D8
08D8
1070
ENDCHAR
STARTCHAR threeeighths
ENCODING 8540
SWIDTH 684 0
DWIDTH 14 0
BBX 13 15 0 0
BITMAP
7010
D820
1820
3040
1840
D880
D880
7170
02D8
02D8
0470
04D8
08D8
08D8
1070
ENDCHAR
STARTCHAR fiveeighths
ENCODING 8541
SWIDTH 684 0
DWIDTH 14 0
BBX 13 15 0 0
BITMAP
7810
C020
F020
9840
1840
1880
D880
7170
02D8
02D8
0470
04D8
08D8
08D8
1070
ENDCHAR
STARTCHAR seveneighths
ENCODING 8542
SWIDTH 684 0
DWIDTH 14 0
BBX 12 15 1 0
BITMAP
F820
1840
3040
3080
7080
6100
6100
62E0
05B0
05B0
08E0
09B0
11B0
11B0
20E0
ENDCHAR
STARTCHAR arrowleft
ENCODING 8592
SWIDTH 1000 0
DWIDTH 21 0
BBX 19 7 1 2
BITMAP
080000
100000
600000
FFFFE0
600000
300000
100000
ENDCHAR
STARTCHAR arrowup
ENCODING 8593
SWIDTH 500 0
DWIDTH 11 0
BBX 7 18 2 -4
BITMAP
10
30
38
5C
96
10
10
10
10
10
10
10
10
10
10
10
10
10
ENDCHAR
STARTCHAR arrowright
ENCODING 8594
SWIDTH 1000 0
DWIDTH 21 0
BBX 19 7 1 2
BITMAP
000200
000100
0000C0
FFFFE0
0000C0
000180
000100
ENDCHAR
STARTCHAR arrowdown
ENCODING 8595
SWIDTH 500 0
DWIDTH 11 0
BBX 7 18 2 -4
BITMAP
10
10
10
10
10
10
10
10
10
10
10
10
10
10
D6
7C
38
10
ENDCHAR
STARTCHAR arrowboth
ENCODING 8596
SWIDTH 1000 0
DWIDTH 21 0
BBX 19 7 1 2
BITMAP
080200
100100
6000C0
FFFFE0
6000C0
300180
100100
ENDCHAR
STARTCHAR arrowupdn
ENCODING 8597
SWIDTH 500 0
DWIDTH 11 0
BBX 7 19 2 -4
BITMAP
10
30
78
DC
92
10
10
10
10
10
10
10
10
10
10
D6
7C
38
10
ENDCHAR
STARTCHAR arrowupdnbse
ENCODING 8616
SWIDTH 500 0
DWIDTH 11 0
BBX 7 21 2 -6
BITMAP
10
30
78
DC
92
10
10
10
10
10
10
10
10
10
10
D6
7C
38
10
00
FE
ENDCHAR
STARTCHAR partialdiff
ENCODING 8706
SWIDTH 494 0
DWIDTH 10 0
BBX 9 15 0 0
BITMAP
0E00
1F00
3380
2180
0180
0F80
3F80
7980
7180
E300
E300
E300
E600
FC00
7800
ENDCHAR
STARTCHAR increment
ENCODING 8710
SWIDTH 611 0
DWIDTH 13 0
BBX 13 15 0 0
BITMAP
0200
0200
0700
0700
0900
0980
1180
10C0
10C0
20E0
2060
4060
4070
8030
FFF8
ENDCHAR
STARTCHAR product
ENCODING 8719
SWIDTH 823 0
DWIDTH 17 0
BBX 13 19 2 -4
BITMAP
FFF8
FFF8
E038
E038
E038
E038
E038
E038
E038
E038
E038
E038
E038
E038
E038
E038
E038
E038
E038
ENDCHAR
STARTCHAR summation
ENCODING 8721
SWIDTH 712 0
DWIDTH 15 0
BBX 13 19 1 -4
BITMAP
FFF8
FFF8
C000
6000
3000
1800
0C00
0600
0700
0300
0600
0600
0C00
1800
3000
6000
C000
FFF8
FFF8
ENDCHAR
STARTCHAR minus
ENCODING 8722
SWIDTH 479 0
DWIDTH 10 0
BBX 8 3 1 6
BITMAP
FF
FF
FF
ENDCHAR
STARTCHAR fraction.dup3
ENCODING 8725
SWIDTH 137 0
DWIDTH 3 0
BBX 9 15 -3 0
BITMAP
0080
0100
0100
0200
0200
0400
0400
0800
1000
1000
2000
2000
4000
4000
8000
ENDCHAR
STARTCHAR periodcentered
ENCODING 8729
SWIDTH 228 0
DWIDTH 5 0
BBX 3 2 1 6
BITMAP
E0
E0
ENDCHAR
STARTCHAR radical
ENCODING 8730
SWIDTH 548 0
DWIDTH 12 0
BBX 11 19 1 0
BITMAP
0020
0020
0020
0020
0040
0040
0040
0040
2040
D040
1040
0840
0480
0480
0280
0280
0180
0080
0080
ENDCHAR
STARTCHAR infinity
ENCODING 8734
SWIDTH 712 0
DWIDTH 15 0
BBX 11 7 2 4
BITMAP
01C0
7260
8E20
8420
8E20
7A60
01C0
ENDCHAR
STARTCHAR orthogonal
ENCODING 8735
SWIDTH 979 0
DWIDTH 21 0
BBX 13 13 4 0
BITMAP
8000
8000
8000
8000
8000
8000
8000
8000
8000
8000
8000
8000
FFF8
ENDCHAR
STARTCHAR intersection
ENCODING 8745
SWIDTH 722 0
DWIDTH 15 0
BBX 11 14 2 0
BITMAP
1F00
20C0
4040
C020
8020
8020
8020
8020
8020
8020
8020
8020
8020
8020
ENDCHAR
STARTCHAR integral
ENCODING 8747
SWIDTH 273 0
DWIDTH 6 0
BBX 6 22 0 -3
BITMAP
1C
1C
3C
30
30
30
30
30
30
30
30
30
30
30
30
30
30
30
30
F0
E0
E0
ENDCHAR
STARTCHAR approxequal
ENCODING 8776
SWIDTH 548 0
DWIDTH 12 0
BBX 11 7 0 5
BITMAP
7C20
FFE0
87C0
0000
7C20
FFE0
87C0
ENDCHAR
STARTCHAR notequal
ENCODING 8800
SWIDTH 548 0
DWIDTH 12 0
BBX 12 14 0 1
BITMAP
00E0
01C0
01C0
0380
FFF0
FFF0
0700
0E00
FFF0
FFF0
1C00
3800
3800
7000
ENDCHAR
STARTCHAR equivalence
ENCODING 8801
SWIDTH 478 0
DWIDTH 10 0
BBX 9 10 0 2
BITMAP
FF80
FF80
0000
0000
FF80
FF80
0000
0000
FF80
FF80
ENDCHAR
STARTCHAR lessequal
ENCODING 8804
SWIDTH 548 0
DWIDTH 12 0
BBX 10 13 1 0
BITMAP
00C0
1FC0
FFC0
FF00
E000
FF00
FFC0
1FC0
00C0
0000
FFC0
FFC0
FFC0
ENDCHAR
STARTCHAR greaterequal
ENCODING 8805
SWIDTH 548 0
DWIDTH 12 0
BBX 10 13 1 0
BITMAP
C000
FE00
FFC0
3FC0
01C0
3FC0
FFC0
FE00
C000
0000
FFC0
FFC0
FFC0
ENDCHAR
STARTCHAR house
ENCODING 8962
SWIDTH 600 0
DWIDTH 13 0
BBX 9 12 2 0
BITMAP
0800
1800
2400
4200
C100
8080
8080
8080
8080
8080
8080
FF80
ENDCHAR
STARTCHAR revlogicalnot
ENCODING 8976
SWIDTH 479 0
DWIDTH 10 0
BBX 8 8 1 3
BITMAP
FF
FF
FF
E0
E0
E0
E0
E0
ENDCHAR
STARTCHAR integraltp
ENCODING 8992
SWIDTH 604 0
DWIDTH 13 0
BBX 4 23 6 -5
BITMAP
70
B0
80
80
80
80
80
80
80
80
80
80
80
80
80
80
80
80
80
80
80
80
80
ENDCHAR
STARTCHAR integralbt
ENCODING 8993
SWIDTH 604 0
DWIDTH 13 0
BBX 4 23 3 -5
BITMAP
10
10
10
10
10
10
10
10
10
10
10
10
10
10
10
10
10
10
10
10
10
90
E0
ENDCHAR
STARTCHAR SF100000
ENCODING 9472
SWIDTH 708 0
DWIDTH 15 0
BBX 15 2 0 5
BITMAP
FFFE
FFFE
ENDCHAR
STARTCHAR SF110000
ENCODING 9474
SWIDTH 615 0
DWIDTH 13 0
BBX 1 25 5 -6
BITMAP
80
80
80
80
80
80
80
80
80
80
80
80
80
80
80
80
80
80
80
80
80
80
80
80
80
ENDCHAR
STARTCHAR SF010000
ENCODING 9484
SWIDTH 708 0
DWIDTH 15 0
BBX 8 13 7 -6
BITMAP
FF
FF
80
80
80
80
80
80
80
80
80
80
80
ENDCHAR
STARTCHAR SF030000
ENCODING 9488
SWIDTH 708 0
DWIDTH 15 0
BBX 8 13 0 -6
BITMAP
FF
FF
01
01
01
01
01
01
01
01
01
01
01
ENDCHAR
STARTCHAR SF020000
ENCODING 9492
SWIDTH 708 0
DWIDTH 15 0
BBX 8 14 7 5
BITMAP
80
80
80
80
80
80
80
80
80
80
80
80
FF
FF
ENDCHAR
STARTCHAR SF040000
ENCODING 9496
SWIDTH 708 0
DWIDTH 15 0
BBX 8 14 0 5
BITMAP
01
01
01
01
01
01
01
01
01
01
01
01
FF
FF
ENDCHAR
STARTCHAR SF080000
ENCODING 9500
SWIDTH 708 0
DWIDTH 15 0
BBX 8 25 7 -6
BITMAP
80
80
80
80
80
80
80
80
80
80
80
80
FF
FF
80
80
80
80
80
80
80
80
80
80
80
ENDCHAR
STARTCHAR SF090000
ENCODING 9508
SWIDTH 708 0
DWIDTH 15 0
BBX 8 25 0 -6
BITMAP
01
01
01
01
01
01
01
01
01
01
01
01
FF
FF
01
01
01
01
01
01
01
01
01
01
01
ENDCHAR
STARTCHAR SF060000
ENCODING 9516
SWIDTH 708 0
DWIDTH 15 0
BBX 15 13 0 -6
BITMAP
FFFE
FFFE
0100
0100
0100
0100
0100
0100
0100
0100
0100
0100
0100
ENDCHAR
STARTCHAR SF070000
ENCODING 9524
SWIDTH 708 0
DWIDTH 15 0
BBX 15 14 0 5
BITMAP
0100
0100
0100
0100
0100
0100
0100
0100
0100
0100
0100
0100
FFFE
FFFE
ENDCHAR
STARTCHAR SF050000
ENCODING 9532
SWIDTH 708 0
DWIDTH 15 0
BBX 15 25 0 -6
BITMAP
0100
0100
0100
0100
0100
0100
0100
0100
0100
0100
0100
0100
FFFE
FFFE
0100
0100
0100
0100
0100
0100
0100
0100
0100
0100
0100
ENDCHAR
STARTCHAR SF430000
ENCODING 9552
SWIDTH 708 0
DWIDTH 15 0
BBX 15 5 0 4
BITMAP
FFFE
FFFE
0000
0000
FFFE
ENDCHAR
STARTCHAR SF240000
ENCODING 9553
SWIDTH 708 0
DWIDTH 15 0
BBX 6 25 0 -6
BITMAP
CC
CC
CC
CC
CC
CC
CC
CC
CC
CC
CC
CC
CC
CC
CC
CC
CC
CC
CC
CC
CC
CC
CC
CC
CC
ENDCHAR
STARTCHAR SF510000
ENCODING 9554
SWIDTH 708 0
DWIDTH 15 0
BBX 9 15 0 -6
BITMAP
FF80
FF80
C000
C000
FF80
C000
C000
C000
C000
C000
C000
C000
C000
C000
C000
ENDCHAR
STARTCHAR SF520000
ENCODING 9555
SWIDTH 708 0
DWIDTH 15 0
BBX 11 13 0 -6
BITMAP
FFE0
FFE0
CC00
CC00
CC00
CC00
CC00
CC00
CC00
CC00
CC00
CC00
CC00
ENDCHAR
STARTCHAR SF390000
ENCODING 9556
SWIDTH 708 0
DWIDTH 15 0
BBX 11 15 0 -6
BITMAP
FFE0
FFE0
C000
C000
CFE0
CC00
CC00
CC00
CC00
CC00
CC00
CC00
CC00
CC00
CC00
ENDCHAR
STARTCHAR SF220000
ENCODING 9557
SWIDTH 708 0
DWIDTH 15 0
BBX 9 15 0 -6
BITMAP
FF80
FF80
0180
0180
FF80
0180
0180
0180
0180
0180
0180
0180
0180
0180
0180
ENDCHAR
STARTCHAR SF210000
ENCODING 9558
SWIDTH 708 0
DWIDTH 15 0
BBX 11 13 0 -6
BITMAP
FFE0
FFE0
0660
0660
0660
0660
0660
0660
0660
0660
0660
0660
0660
ENDCHAR
STARTCHAR SF250000
ENCODING 9559
SWIDTH 708 0
DWIDTH 15 0
BBX 11 15 0 -6
BITMAP
FFE0
FFE0
0060
0060
FE60
0660
0660
0660
0660
0660
0660
0660
0660
0660
0660
ENDCHAR
STARTCHAR SF500000
ENCODING 9560
SWIDTH 708 0
DWIDTH 15 0
BBX 9 15 0 4
BITMAP
C000
C000
C000
C000
C000
C000
C000
C000
C000
C000
FF80
FF80
C000
C000
FF80
ENDCHAR
STARTCHAR SF490000
ENCODING 9561
SWIDTH 708 0
DWIDTH 15 0
BBX 11 14 0 5
BITMAP
CC00
CC00
CC00
CC00
CC00
CC00
CC00
CC00
CC00
CC00
CC00
CC00
FFE0
FFE0
ENDCHAR
STARTCHAR SF380000
ENCODING 9562
SWIDTH 708 0
DWIDTH 15 0
BBX 11 15 0 4
BITMAP
CC00
CC00
CC00
CC00
CC00
CC00
CC00
CC00
CC00
CC00
CFE0
CFE0
C000
C000
FFE0
ENDCHAR
STARTCHAR SF280000
ENCODING 9563
SWIDTH 708 0
DWIDTH 15 0
BBX 9 15 0 4
BITMAP
0180
0180
0180
0180
0180
0180
0180
0180
0180
0180
FF80
FF80
0180
0180
FF80
ENDCHAR
STARTCHAR SF270000
ENCODING 9564
SWIDTH 708 0
DWIDTH 15 0
BBX 11 14 0 5
BITMAP
0660
0660
0660
0660
0660
0660
0660
0660
0660
0660
0660
0660
FFE0
FFE0
ENDCHAR
STARTCHAR SF260000
ENCODING 9565
SWIDTH 708 0
DWIDTH 15 0
BBX 11 15 0 4
BITMAP
0660
0660
0660
0660
0660
0660
0660
0660
0660
0660
FE60
FE60
0060
0060
FFE0
ENDCHAR
STARTCHAR SF360000
ENCODING 9566
SWIDTH 708 0
DWIDTH 15 0
BBX 9 25 0 -6
BITMAP
C000
C000
C000
C000
C000
C000
C000
C000
C000
C000
FF80
FF80
C000
C000
FF80
C000
C000
C000
C000
C000
C000
C000
C000
C000
C000
ENDCHAR
STARTCHAR SF370000
ENCODING 9567
SWIDTH 708 0
DWIDTH 15 0
BBX 11 25 0 -6
BITMAP
CC00
CC00
CC00
CC00
CC00
CC00
CC00
CC00
CC00
CC00
CC00
CC00
CFE0
CFE0
CC00
CC00
CC00
CC00
CC00
CC00
CC00
CC00
CC00
CC00
CC00
ENDCHAR
STARTCHAR SF420000
ENCODING 9568
SWIDTH 708 0
DWIDTH 15 0
BBX 11 25 0 -6
BITMAP
CC00
CC00
CC00
CC00
CC00
CC00
CC00
CC00
CC00
CC00
CFE0
CFE0
C000
C000
CFE0
CC00
CC00
CC00
CC00
CC00
CC00
CC00
CC00
CC00
CC00
ENDCHAR
STARTCHAR SF190000
ENCODING 9569
SWIDTH 708 0
DWIDTH 15 0
BBX 9 25 0 -6
BITMAP
0180
0180
0180
0180
0180
0180
0180
0180
0180
0180
FF80
FF80
0180
0180
FF80
0180
0180
0180
0180
0180
0180
0180
0180
0180
0180
ENDCHAR
STARTCHAR SF200000
ENCODING 9570
SWIDTH 708 0
DWIDTH 15 0
BBX 11 25 0 -6
BITMAP
0660
0660
0660
0660
0660
0660
0660
0660
0660
0660
0660
0660
FE60
FE60
0660
0660
0660
0660
0660
0660
0660
0660
0660
0660
0660
ENDCHAR
STARTCHAR SF230000
ENCODING 9571
SWIDTH 708 0
DWIDTH 15 0
BBX 11 25 0 -6
BITMAP
0660
0660
0660
0660
0660
0660
0660
0660
0660
0660
FE60
FE60
0060
0060
FE60
0660
0660
0660
0660
0660
0660
0660
0660
0660
0660
ENDCHAR
STARTCHAR SF470000
ENCODING 9572
SWIDTH 708 0
DWIDTH 15 0
BBX 15 15 0 -6
BITMAP
FFFE
FFFE
0000
0000
FFFE
0180
0180
0180
0180
0180
0180
0180
0180
0180
0180
ENDCHAR
STARTCHAR SF480000
ENCODING 9573
SWIDTH 708 0
DWIDTH 15 0
BBX 15 13 0 -6
BITMAP
FFFE
FFFE
0660
0660
0660
0660
0660
0660
0660
0660
0660
0660
0660
ENDCHAR
STARTCHAR SF410000
ENCODING 9574
SWIDTH 708 0
DWIDTH 15 0
BBX 15 15 0 -6
BITMAP
FFFE
FFFE
0000
0000
FE7E
0660
0660
0660
0660
0660
0660
0660
0660
0660
0660
ENDCHAR
STARTCHAR SF450000
ENCODING 9575
SWIDTH 708 0
DWIDTH 15 0
BBX 15 15 0 4
BITMAP
0180
0180
0180
0180
0180
0180
0180
0180
0180
0180
FFFE
FFFE
0000
0000
FFFE
ENDCHAR
STARTCHAR SF460000
ENCODING 9576
SWIDTH 708 0
DWIDTH 15 0
BBX 15 14 0 5
BITMAP
0660
0660
0660
0660
0660
0660
0660
0660
0660
0660
0660
0660
FFFE
FFFE
ENDCHAR
STARTCHAR SF400000
ENCODING 9577
SWIDTH 708 0
DWIDTH 15 0
BBX 15 15 0 4
BITMAP
0660
0660
0660
0660
0660
0660
0660
0660
0660
0660
FE7E
FE7E
0000
0000
FFFE
ENDCHAR
STARTCHAR SF540000
ENCODING 9578
SWIDTH 708 0
DWIDTH 15 0
BBX 15 25 0 -6
BITMAP
0180
0180
0180
0180
0180
0180
0180
0180
0180
0180
FFFE
FFFE
0180
0180
FFFE
0180
0180
0180
0180
0180
0180
0180
0180
0180
0180
ENDCHAR
STARTCHAR SF530000
ENCODING 9579
SWIDTH 708 0
DWIDTH 15 0
BBX 15 25 0 -6
BITMAP
0660
0660
0660
0660
0660
0660
0660
0660
0660
0660
0660
0660
FFFE
FFFE
0660
0660
0660
0660
0660
0660
0660
0660
0660
0660
0660
ENDCHAR
STARTCHAR SF440000
ENCODING 9580
SWIDTH 708 0
DWIDTH 15 0
BBX 15 25 0 -6
BITMAP
0660
0660
0660
0660
0660
0660
0660
0660
0660
0660
FE7E
FE7E
0000
0000
FE7E
0660
0660
0660
0660
0660
0660
0660
0660
0660
0660
ENDCHAR
STARTCHAR upblock
ENCODING 9600
SWIDTH 708 0
DWIDTH 15 0
BBX 15 13 0 6
BITMAP
FFFE
FFFE
FFFE
FFFE
FFFE
FFFE
FFFE
FFFE
FFFE
FFFE
FFFE
FFFE
FFFE
ENDCHAR
STARTCHAR dnblock
ENCODING 9604
SWIDTH 708 0
DWIDTH 15 0
BBX 15 12 0 -6
BITMAP
FFFE
FFFE
FFFE
FFFE
FFFE
FFFE
FFFE
FFFE
FFFE
FFFE
FFFE
FFFE
ENDCHAR
STARTCHAR block
ENCODING 9608
SWIDTH 708 0
DWIDTH 15 0
BBX 15 25 0 -6
BITMAP
FFFE
FFFE
FFFE
FFFE
FFFE
FFFE
FFFE
FFFE
FFFE
FFFE
FFFE
FFFE
FFFE
FFFE
FFFE
FFFE
FFFE
FFFE
FFFE
FFFE
FFFE
FFFE
FFFE
FFFE
FFFE
ENDCHAR
STARTCHAR lfblock
ENCODING 9612
SWIDTH 708 0
DWIDTH 15 0
BBX 8 25 0 -6
BITMAP
FF
FF
FF
FF
FF
FF
FF
FF
FF
FF
FF
FF
FF
FF
FF
FF
FF
FF
FF
FF
FF
FF
FF
FF
FF
ENDCHAR
STARTCHAR rtblock
ENCODING 9616
SWIDTH 708 0
DWIDTH 15 0
BBX 8 25 0 -6
BITMAP
FF
FF
FF
FF
FF
FF
FF
FF
FF
FF
FF
FF
FF
FF
FF
FF
FF
FF
FF
FF
FF
FF
FF
FF
FF
ENDCHAR
STARTCHAR ltshade
ENCODING 9617
SWIDTH 708 0
DWIDTH 15 0
BBX 14 24 1 -5
BITMAP
8430
0000
1084
1084
0000
8430
0000
0000
1084
0000
8430
0000
0000
1084
0000
8430
8430
0000
1084
0000
8430
8430
0000
1084
ENDCHAR
STARTCHAR shade
ENCODING 9618
SWIDTH 708 0
DWIDTH 15 0
BBX 15 24 0 -5
BITMAP
4A5A
0000
B5A4
B5A4
0000
4A5A
0000
0000
B5A4
0000
4A5A
0000
0000
B5A4
0000
4A5A
4A5A
0000
B5A4
0000
4A5A
4A5A
0000
B5A4
ENDCHAR
STARTCHAR dkshade
ENCODING 9619
SWIDTH 729 0
DWIDTH 15 0
BBX 15 25 0 -6
BITMAP
6B5A
FFFE
94B4
94B4
FFFE
6B5A
FFFE
FFFE
94B4
FFFE
6B5A
FFFE
FFFE
94B4
FFFE
6B5A
FFFE
FFFE
94B4
FFFE
6B5A
6B5A
FFFE
94B4
FFFE
ENDCHAR
STARTCHAR filledbox
ENCODING 9632
SWIDTH 604 0
DWIDTH 13 0
BBX 10 10 0 0
BITMAP
FFC0
FFC0
FFC0
FFC0
FFC0
FFC0
FFC0
FFC0
FFC0
FFC0
ENDCHAR
STARTCHAR H22073
ENCODING 9633
SWIDTH 604 0
DWIDTH 13 0
BBX 10 10 1 0
BITMAP
FFC0
8040
8040
8040
8040
8040
8040
8040
8040
FFC0
ENDCHAR
STARTCHAR H18543
ENCODING 9642
SWIDTH 354 0
DWIDTH 7 0
BBX 5 4 1 5
BITMAP
F8
F8
F8
F8
ENDCHAR
STARTCHAR H18551
ENCODING 9643
SWIDTH 354 0
DWIDTH 7 0
BBX 5 4 1 5
BITMAP
F8
88
88
F8
ENDCHAR
STARTCHAR filledrect
ENCODING 9644
SWIDTH 1000 0
DWIDTH 21 0
BBX 21 4 0 3
BITMAP
FFFFF8
FFFFF8
FFFFF8
FFFFF8
ENDCHAR
STARTCHAR triagup
ENCODING 9650
SWIDTH 989 0
DWIDTH 21 0
BBX 14 14 0 0
BITMAP
0100
0300
0380
0780
07C0
0FC0
0FE0
1FE0
1FF0
3FF0
3FF8
7FF8
7FFC
FFFC
ENDCHAR
STARTCHAR triagrt
ENCODING 9658
SWIDTH 989 0
DWIDTH 21 0
BBX 14 14 0 0
BITMAP
C000
F000
FC00
FF00
FFC0
FFF0
FFFC
FFFC
FFF0
FFC0
FF00
FC00
F000
C000
ENDCHAR
STARTCHAR triagdn
ENCODING 9660
SWIDTH 989 0
DWIDTH 21 0
BBX 14 14 0 0
BITMAP
FFFC
7FFC
7FF8
3FF8
3FF0
1FF0
1FE0
0FE0
0FC0
07C0
0780
0380
0300
0100
ENDCHAR
STARTCHAR triaglf
ENCODING 9668
SWIDTH 989 0
DWIDTH 21 0
BBX 15 14 3 0
BITMAP
0006
001E
007E
01FE
07FE
1FFE
7FFE
FFFE
1FFE
07FE
01FE
007E
001E
0006
ENDCHAR
STARTCHAR lozenge
ENCODING 9674
SWIDTH 494 0
DWIDTH 10 0
BBX 9 15 0 0
BITMAP
0800
1400
1400
2200
2200
4100
4100
8080
4100
4100
2200
2200
1400
1400
0800
ENDCHAR
STARTCHAR circle
ENCODING 9675
SWIDTH 604 0
DWIDTH 13 0
BBX 9 9 0 1
BITMAP
3E00
4100
8080
8080
8080
8080
4100
2200
1C00
ENDCHAR
STARTCHAR H18533
ENCODING 9679
SWIDTH 604 0
DWIDTH 13 0
BBX 9 9 2 1
BITMAP
3E00
7F00
FF80
FF80
FF80
FF80
7F00
7E00
1800
ENDCHAR
STARTCHAR invbullet
ENCODING 9688
SWIDTH 604 0
DWIDTH 13 0
BBX 10 10 0 0
BITMAP
FFC0
FFC0
FFC0
F3C0
E1C0
E1C0
F3C0
FFC0
FFC0
FFC0
ENDCHAR
STARTCHAR invcircle
ENCODING 9689
SWIDTH 604 0
DWIDTH 13 0
BBX 12 12 0 0
BITMAP
FFF0
FFF0
E670
DFB0
DFB0
BFF0
BFF0
FFB0
DFB0
EE70
F9F0
FFF0
ENDCHAR
STARTCHAR openbullet
ENCODING 9702
SWIDTH 354 0
DWIDTH 7 0
BBX 5 6 1 4
BITMAP
20
58
88
88
48
30
ENDCHAR
STARTCHAR smileface
ENCODING 9786
SWIDTH 1020 0
DWIDTH 21 0
BBX 13 13 4 -1
BITMAP
0780
1860
2030
4010
4008
98C8
8008
8008
8008
4888
6710
3020
0FC0
ENDCHAR
STARTCHAR invsmileface
ENCODING 9787
SWIDTH 1052 0
DWIDTH 22 0
BBX 13 13 5 -1
BITMAP
0F00
3FC0
7FE0
FFF0
FFF0
EF70
FFF8
FFF8
FF70
E670
79E0
3FC0
1F80
ENDCHAR
STARTCHAR sun
ENCODING 9788
SWIDTH 916 0
DWIDTH 19 0
BBX 18 19 0 -2
BITMAP
004000
004000
204080
104100
09F200
060C00
080400
080200
100200
F00200
1003C0
100200
080200
040400
0A0A00
11F100
204080
004000
004000
ENDCHAR
STARTCHAR female
ENCODING 9792
SWIDTH 750 0
DWIDTH 16 0
BBX 11 19 2 -4
BITMAP
1F80
6040
4020
8020
8020
8020
8020
4020
2040
1180
0E00
0400
0400
0400
7FE0
0400
0400
0400
0400
ENDCHAR
STARTCHAR male
ENCODING 9794
SWIDTH 750 0
DWIDTH 16 0
BBX 13 20 1 -3
BITMAP
0010
0070
01B0
0628
0048
0048
0088
0080
0100
1F00
2080
4040
8020
8020
8020
8020
8040
4040
2080
1F00
ENDCHAR
STARTCHAR spade
ENCODING 9824
SWIDTH 531 0
DWIDTH 11 0
BBX 10 12 0 0
BITMAP
0800
0C00
1E00
3F00
7F80
FFC0
FFC0
FFC0
7B80
0800
0C00
3F00
ENDCHAR
STARTCHAR club
ENCODING 9827
SWIDTH 656 0
DWIDTH 14 0
BBX 12 13 1 0
BITMAP
0600
0F00
1F80
1F80
1F40
FFF0
FFF0
FFF0
FBF0
75E0
0600
0E00
3F80
ENDCHAR
STARTCHAR heart
ENCODING 9829
SWIDTH 593 0
DWIDTH 12 0
BBX 11 13 0 0
BITMAP
2080
FBE0
FBE0
FFE0
FFE0
7FC0
3FC0
3F80
1F00
0E00
0E00
0400
0400
ENDCHAR
STARTCHAR diamond
ENCODING 9830
SWIDTH 510 0
DWIDTH 11 0
BBX 9 12 0 0
BITMAP
0800
1C00
1E00
3F00
7F00
FF80
7F80
7F00
3E00
1C00
0C00
0800
ENDCHAR
STARTCHAR musicalnote
ENCODING 9834
SWIDTH 500 0
DWIDTH 11 0
BBX 10 14 0 0
BITMAP
0780
07C0
05C0
0440
0440
0400
0400
0400
0400
0400
7C00
FC00
FC00
7800
ENDCHAR
STARTCHAR musicalnotedbl
ENCODING 9835
SWIDTH 750 0
DWIDTH 16 0
BBX 13 17 1 -1
BITMAP
0008
0078
03F8
0FE8
0F08
0808
0808
0808
0808
0808
0868
09F8
09F8
F9F0
F8F0
F800
F800
ENDCHAR
STARTCHAR fi
ENCODING 64257
SWIDTH 500 0
DWIDTH 11 0
BBX 10 15 0 0
BITMAP
3DC0
7DC0
71C0
7000
FDC0
FDC0
71C0
71C0
71C0
71C0
71C0
71C0
71C0
71C0
71C0
ENDCHAR
STARTCHAR fl
ENCODING 64258
SWIDTH 500 0
DWIDTH 11 0
BBX 10 15 0 0
BITMAP
3FC0
7FC0
71C0
71C0
FDC0
FDC0
71C0
71C0
71C0
71C0
71C0
71C0
71C0
71C0
71C0
ENDCHAR
STARTCHAR .notdef
ENCODING -1
SWIDTH 228 0
DWIDTH 5 0
BBX 4 13 1 0
BITMAP
F0
90
90
90
90
90
90
90
90
90
90
90
F0
ENDCHAR
STARTCHAR .null
ENCODING -1
SWIDTH 0 0
DWIDTH 0 0
BBX 1 1 0 0
BITMAP
00
ENDCHAR
STARTCHAR nonmarkingreturn
ENCODING -1
SWIDTH 228 0
DWIDTH 5 0
BBX 1 1 0 0
BITMAP
00
ENDCHAR
STARTCHAR pi1
ENCODING -1
SWIDTH 548 0
DWIDTH 12 0
BBX 12 11 0 0
BITMAP
FFF0
FFF0
39C0
39C0
39C0
39C0
39C0
39C0
39C0
39C0
39C0
ENDCHAR
STARTCHAR commaaccent
ENCODING -1
SWIDTH 272 0
DWIDTH 6 0
BBX 2 5 2 -6
BITMAP
C0
C0
C0
40
80
ENDCHAR
STARTCHAR undercommaaccent
ENCODING -1
SWIDTH 272 0
DWIDTH 6 0
BBX 5 4 0 -4
BITMAP
70
18
18
F0
ENDCHAR
STARTCHAR foursuperior
ENCODING -1
SWIDTH 272 0
DWIDTH 6 0
BBX 6 8 0 7
BITMAP
18
38
38
78
58
D8
FC
18
ENDCHAR
STARTCHAR fivesuperior
ENCODING -1
SWIDTH 272 0
DWIDTH 6 0
BBX 5 8 0 7
BITMAP
78
C0
F0
98
18
18
D8
70
ENDCHAR
STARTCHAR sevensuperior
ENCODING -1
SWIDTH 272 0
DWIDTH 6 0
BBX 5 8 0 7
BITMAP
F8
18
30
30
70
60
60
60
ENDCHAR
STARTCHAR eightsuperior
ENCODING -1
SWIDTH 272 0
DWIDTH 6 0
BBX 5 8 0 7
BITMAP
70
D8
D8
70
D8
D8
D8
70
ENDCHAR
STARTCHAR glyph663
ENCODING -1
SWIDTH 228 0
DWIDTH 5 0
BBX 3 18 1 0
BITMAP
60
C0
00
E0
E0
E0
00
E0
E0
E0
E0
E0
E0
E0
E0
E0
E0
E0
ENDCHAR
ENDFONT
